<svg id="Capa_1" enable-background="new 0 0 512.026 512.026" height="512" viewBox="0 0 512.026 512.026" width="512" xmlns="http://www.w3.org/2000/svg"><g><g><path d="m153.778 344.827c5.468-.774 9.274-5.835 8.5-11.303-.774-5.47-5.843-9.271-11.303-8.5l-35 4.954c-4.932.698-8.599 4.92-8.599 9.901v80c0 2.896 1.256 5.651 3.443 7.551 2.186 1.903 5.115 2.757 7.958 2.351l35-4.954c5.468-.774 9.274-5.835 8.5-11.303-.774-5.469-5.843-9.277-11.303-8.5l-23.599 3.34v-19.801l16.025-2.269c5.469-.774 9.274-5.835 8.5-11.303-.775-5.469-5.838-9.276-11.303-8.5l-13.223 1.872v-19.799z"/><path d="m218.475 395.469-23.598 3.341v-68.484c-.492-13.254-19.513-13.244-20 0v80c0 2.896 1.256 5.651 3.443 7.551 2.185 1.903 5.115 2.757 7.958 2.351l35-4.955c5.468-.774 9.273-5.835 8.5-11.303-.775-5.47-5.837-9.279-11.303-8.501z"/><path d="m417.152 344.64c26.522-16.649 18.374-58.501-15.551-55.093l-20 2.831c-4.933.698-8.599 4.92-8.599 9.901v80.002c.492 13.254 19.512 13.244 20 0v-31.317l4.497-.637 16.696 31.03c2.631 4.911 8.777 6.66 13.545 4.068 4.863-2.617 6.685-8.682 4.068-13.545zm-24.15-33.676 11.401-1.614c2.446-.343 4.661.217 6.238 1.586 6.349 6.305-1.082 17.659-8.953 18.597-.092.012-.183.025-.275.04l-8.412 1.191v-19.8z"/><path d="m74.385 378.891-10.633-2.897c-1.792-.489-3.117-1.564-3.938-3.198-1.079-2.146-1.084-4.945-.015-7.68 2.261-5.781 8.677-9.643 13.732-8.265l5.316 1.449c5.329 1.448 10.826-1.69 12.278-7.019 1.453-5.328-1.689-10.825-7.018-12.278l-5.316-1.448c-15.042-4.107-31.567 4.804-37.618 20.273-3.134 8.011-2.854 16.74.771 23.95 3.38 6.725 9.256 11.522 16.546 13.511l10.633 2.897c1.792.489 3.116 1.564 3.937 3.197 1.08 2.147 1.085 4.947.015 7.683-2.261 5.78-8.676 9.642-13.731 8.263l-5.316-1.449c-12.918-3.006-17.909 15.342-5.26 19.297l5.315 1.448c24.2 6.921 48.491-21.08 36.847-44.225-3.38-6.723-9.256-11.521-16.545-13.509z"/><path d="m283.476 386.269-23.599 3.34v-68.484c-.492-13.254-19.513-13.244-20 0v80c0 2.896 1.256 5.651 3.443 7.551 2.186 1.903 5.115 2.757 7.958 2.351l35-4.954c13.061-2.349 10.371-21.177-2.802-19.804z"/><path d="m352.404 316.711c5.469-.774 9.274-5.835 8.5-11.303-.774-5.469-5.847-9.276-11.303-8.5l-35 4.955c-4.933.698-8.599 4.92-8.599 9.901v80c0 2.896 1.256 5.651 3.443 7.551 2.184 1.903 5.115 2.757 7.958 2.351l35-4.955c5.469-.774 9.274-5.835 8.5-11.303-.774-5.47-5.847-9.282-11.303-8.5l-23.599 3.341v-19.801l16.025-2.269c5.469-.774 9.274-5.835 8.5-11.303-.774-5.47-5.848-9.282-11.303-8.5l-13.223 1.872v-19.801z"/><path d="m271.616 113.147c13.06-2.347 10.372-21.175-2.803-19.803l-35 4.954c-4.932.698-8.599 4.92-8.599 9.901v80c0 2.896 1.256 5.651 3.443 7.551 2.186 1.903 5.115 2.757 7.958 2.351l35-4.954c13.06-2.347 10.372-21.175-2.803-19.803l-23.599 3.34v-19.8l16.025-2.269c5.469-.774 9.274-5.835 8.5-11.303-.774-5.469-5.846-9.275-11.303-8.5l-13.223 1.872v-19.8z"/><path d="m398.562 74.979-35 4.955c-5.469.774-9.274 5.835-8.5 11.303.749 5.494 5.949 9.294 11.303 8.5l6.099-.863v68.484c.492 13.254 19.512 13.244 20 0v-71.316l8.901-1.26c5.469-.774 9.274-5.835 8.5-11.303-.775-5.469-5.849-9.277-11.303-8.5z"/><path d="m200.966 112.371c-5.929-5.149-14.007-7.444-22.153-6.287l-20 2.831c-4.933.698-8.599 4.92-8.599 9.901v79.999c0 2.896 1.256 5.651 3.443 7.551 2.185 1.903 5.115 2.757 7.958 2.351l20-2.831c23.699-2.784 38.364-34.076 20.98-51.972 10.083-11.642 10.56-31.288-1.629-41.543zm-19.35 13.516c2.45-.344 4.661.218 6.237 1.585 6.371 6.332-1.131 17.736-9.041 18.612-.002 0-.004.001-.006.001l-8.592 1.216v-19.8zm-2.803 60.196-8.599 1.217v-19.8l11.396-1.613c.002 0 .004 0 .005-.001 2.447-.346 4.661.217 6.237 1.585 6.372 6.331-1.131 17.738-9.039 18.612z"/><path d="m325.477 128.349-10.633-2.897c-1.792-.489-3.117-1.565-3.938-3.198-1.079-2.146-1.084-4.946-.015-7.681 2.262-5.78 8.678-9.643 13.732-8.264l5.316 1.449c12.92 3.005 17.908-15.341 5.26-19.297l-5.316-1.448c-15.036-4.105-31.566 4.802-37.617 20.272-3.135 8.012-2.854 16.741.771 23.95 3.38 6.725 9.256 11.522 16.546 13.512l10.634 2.897c1.792.489 3.117 1.564 3.938 3.198 1.078 2.146 1.084 4.945.013 7.681-2.26 5.78-8.675 9.643-13.73 8.264l-5.316-1.449c-5.326-1.447-10.825 1.69-12.278 7.019-1.452 5.328 1.69 10.825 7.019 12.278l5.315 1.448c15.249 4.094 31.545-4.865 37.617-20.272 3.135-8.011 2.854-16.741-.77-23.95-3.382-6.726-9.258-11.524-16.548-13.512z"/><path d="m473.185 330.782 37.876-81.113c3.42-7.009-2.767-15.356-10.462-14.133l-121.134 17.146 81.535-47.074c3.094-1.786 5-5.088 5-8.66v-160c0-2.896-1.256-5.651-3.443-7.551-2.187-1.899-5.095-2.759-7.958-2.351l-400 56.62c-3.238.458-6.046 2.471-7.522 5.388-1.476 2.918-1.432 6.373.118 9.252l37.621 69.917-37.876 81.113c-3.417 7.009 2.763 15.356 10.462 14.133l29.133-4.124-81.535 47.073c-3.094 1.786-5 5.088-5 8.66v160c0 2.896 1.256 5.651 3.443 7.551 2.186 1.903 5.115 2.757 7.958 2.351l492-69.642c3.237-.458 6.047-2.471 7.522-5.388 1.476-2.918 1.432-6.373-.118-9.252zm-368.124-158.645c1.336-2.862 1.242-6.188-.255-8.97l-33.204-61.708 374.398-52.996v139.801l-373.132 52.816zm-85.061 291.426v-139.8l134.865-19.09c5.469-.774 9.274-5.835 8.5-11.303-.775-5.468-5.844-9.279-11.303-8.5l-92.392 13.078 79.856-46.104 266.801-37.766-79.854 46.104-85.296 12.073c-5.469.774-9.274 5.835-8.5 11.303s5.838 9.278 11.303 8.5l241.152-34.135-32.193 68.943c-1.337 2.862-1.242 6.188.255 8.97l33.204 61.708z"/><path d="m198.026 298.465c13.254-.492 13.244-19.513 0-20h-.008c-13.254.494-13.236 19.515.008 20z"/></g></g></svg>