<?xml version="1.0" encoding="UTF-8" standalone="no"?>
<!-- Created with Inkscape (http://www.inkscape.org/) -->

<svg
   version="1.1"
   id="svg9"
   xml:space="preserve"
   width="682.66669"
   height="682.66669"
   viewBox="0 0 682.66669 682.66669"
   xmlns="http://www.w3.org/2000/svg"
   xmlns:svg="http://www.w3.org/2000/svg"><defs
     id="defs13"><clipPath
       clipPathUnits="userSpaceOnUse"
       id="clipPath23"><path
         d="M 0,512 H 512 V 0 H 0 Z"
         id="path21" /></clipPath></defs><g
     id="g15"
     transform="matrix(1.3333333,0,0,-1.3333333,0,682.66667)"><g
       id="g17"><g
         id="g19"
         clip-path="url(#clipPath23)"><g
           id="g25"
           transform="translate(504.5,183.041)"><path
             d="M 0,0 C -29.423,10.784 -58.813,15.621 -88.182,16.62"
             style="fill:none;stroke:#000000;stroke-width:15;stroke-linecap:round;stroke-linejoin:round;stroke-miterlimit:10;stroke-dasharray:none;stroke-opacity:1"
             id="path27" /></g><g
           id="g29"
           transform="translate(7.5,328.8545)"><path
             d="M 0,0 C 166.017,-60.846 330.979,67.631 497,6.784"
             style="fill:none;stroke:#000000;stroke-width:15;stroke-linecap:round;stroke-linejoin:round;stroke-miterlimit:10;stroke-dasharray:none;stroke-opacity:1"
             id="path31" /></g><g
           id="g33"
           transform="translate(383.6313,199.2944)"><path
             d="M 0,0 C -125.384,-6.665 -250.455,-69.097 -376.131,-23.037"
             style="fill:none;stroke:#000000;stroke-width:15;stroke-linecap:round;stroke-linejoin:round;stroke-miterlimit:10;stroke-dasharray:none;stroke-opacity:1"
             id="path35" /></g><g
           id="g37"
           transform="translate(131.3179,417.7642)"><path
             d="m 0,0 c 122.139,7.336 243.99,66.372 366.402,25.249 4.059,-1.364 6.78,-5.192 6.78,-9.474 V -325.8 c 0,-6.721 -6.504,-11.539 -12.926,-9.555 -120.451,37.212 -240.373,-20.118 -360.574,-27.249"
             style="fill:none;stroke:#000000;stroke-width:15;stroke-linecap:round;stroke-linejoin:round;stroke-miterlimit:10;stroke-dasharray:none;stroke-opacity:1"
             id="path39" /></g><g
           id="g41"
           transform="translate(99,54.5483)"><path
             d="m 0,0 c -28.217,0.684 -56.454,4.839 -84.72,14.334 -4.059,1.364 -6.78,5.192 -6.78,9.474 v 341.575 c 0,6.721 6.504,11.539 12.926,9.555 26.181,-8.088 52.337,-11.709 78.476,-12.35"
             style="fill:none;stroke:#000000;stroke-width:15;stroke-linecap:round;stroke-linejoin:round;stroke-miterlimit:10;stroke-dasharray:none;stroke-opacity:1"
             id="path43" /></g><g
           id="g45"
           transform="translate(303,255.9487)"><path
             d="m 0,0 c 0,-25.958 -21.042,-47 -47,-47 -25.958,0 -47,21.042 -47,47 0,25.957 21.042,47 47,47 C -21.042,47 0,25.957 0,0 Z"
             style="fill:none;stroke:#000000;stroke-width:15;stroke-linecap:round;stroke-linejoin:round;stroke-miterlimit:10;stroke-dasharray:none;stroke-opacity:1"
             id="path47" /></g><g
           id="g49"
           transform="translate(256,302.9487)"><path
             d="M 0,0 V -94"
             style="fill:none;stroke:#000000;stroke-width:15;stroke-linecap:round;stroke-linejoin:round;stroke-miterlimit:10;stroke-dasharray:none;stroke-opacity:1"
             id="path51" /></g><g
           id="g53"
           transform="translate(296.4106,279.9482)"><path
             d="M 0,0 -80.821,-47.999"
             style="fill:none;stroke:#000000;stroke-width:15;stroke-linecap:round;stroke-linejoin:round;stroke-miterlimit:10;stroke-dasharray:none;stroke-opacity:1"
             id="path55" /></g><g
           id="g57"
           transform="translate(215.5894,279.9482)"><path
             d="M 0,0 80.821,-47.999"
             style="fill:none;stroke:#000000;stroke-width:15;stroke-linecap:round;stroke-linejoin:round;stroke-miterlimit:10;stroke-dasharray:none;stroke-opacity:1"
             id="path59" /></g></g></g></g></svg>
