<svg id="Capa_1" enable-background="new 0 0 512 512" height="512" viewBox="0 0 512 512" width="512" xmlns="http://www.w3.org/2000/svg"><g><g id="Page-1_11_"><g id="_x30_12---Soft-Mattress" transform="translate(0 -1)"><path id="Shape_26_" d="m423.296 195.109c-1.592-2.654-4.496-4.237-7.589-4.139s-5.89 1.863-7.31 4.613c-1.42 2.749-1.241 6.052.469 8.631l79.113 125.329h-463.958l57.267-90.761c1.754-2.581 1.959-5.914.535-8.691-1.425-2.777-4.251-4.555-7.371-4.635-3.12-.081-6.035 1.548-7.602 4.247l-60.211 95.403c-4.357 6.83-6.661 14.768-6.639 22.869v92.501c0 14.138 11.462 25.6 25.6 25.6h460.8c14.138 0 25.6-11.462 25.6-25.6v-92.501c.025-8.081-2.268-16-6.605-22.818zm63.104 253.901h-460.8c-4.713 0-8.533-3.821-8.533-8.533v-59.733h42.667c4.713 0 8.533-3.82 8.533-8.533s-3.821-8.533-8.533-8.533h-42.667v-15.701c0-.461.068-.905.094-1.365h477.679c0 .461.094.905.094 1.365v15.701h-392.534c-4.713 0-8.533 3.82-8.533 8.533s3.821 8.533 8.533 8.533h392.533v59.733c.001 4.713-3.82 8.533-8.533 8.533z"/><g clip-rule="evenodd" fill-rule="evenodd"><circle id="Oval_84_" cx="213.333" cy="252.743" r="8.533"/><circle id="Oval_83_" cx="204.8" cy="295.41" r="8.533"/><circle id="Oval_82_" cx="128" cy="252.743" r="8.533"/><circle id="Oval_81_" cx="110.933" cy="295.41" r="8.533"/><circle id="Oval_80_" cx="298.667" cy="252.743" r="8.533"/><circle id="Oval_79_" cx="307.2" cy="295.41" r="8.533"/><circle id="Oval_78_" cx="384" cy="252.743" r="8.533"/><circle id="Oval_77_" cx="401.067" cy="295.41" r="8.533"/><path id="Path_50_" d="m348.57 171.933c2.498-4.006 1.275-9.278-2.731-11.776s-9.278-1.275-11.776 2.731c-39.305 62.899-118.135 55.885-159.036 31.343-23.492-13.94-51.325-18.654-78.097-13.227 8.518-30.242 27.173-56.637 52.838-74.761 45.133-30.106 100.105 15.983 100.693 16.452 3.592 2.918 8.854 2.441 11.863-1.075s2.667-8.789-.77-11.887c-2.645-2.261-65.289-54.963-121.225-17.69-33.443 23.615-56.237 59.454-63.445 99.755-.434 3.014.77 6.031 3.161 7.917s5.606 2.355 8.436 1.231c25.868-8.611 54.185-5.731 77.79 7.91 23.16 13.245 49.395 20.172 76.075 20.087 43.051 1.338 83.543-20.395 106.224-57.01z"/><path id="Path_49_" d="m244.403 65.573c-2.847 1.094-4.895 3.625-5.371 6.638s.692 6.051 3.063 7.97 5.587 2.426 8.434 1.332c.998-.393 96.145-36.19 145.57 7.612-84.787 50.133-148.557 60.988-180.693 52.907-21.143-5.61-43.392-5.548-64.503.179-4.477 1.489-6.899 6.326-5.41 10.803s6.326 6.899 10.803 5.41c18.028-4.698 36.966-4.636 54.963.179 8.632 2.04 17.481 3.02 26.351 2.918 39.543 0 97.86-16.213 169.95-59.366 5.415 7.806 7.415 17.482 5.538 26.795-7.885 39.151-74.906 73.139-75.588 73.481-4.216 2.121-5.914 7.257-3.793 11.473s7.257 5.914 11.473 3.793c3.063-1.536 75.093-38.059 84.676-85.333 2.769-13.562-.025-27.669-7.757-39.151 14.131-8.951 28.689-18.773 43.776-29.867 3.803-2.785 4.628-8.126 1.843-11.93s-8.126-4.628-11.93-1.843c-15.358 11.273-30.198 21.274-44.517 30.277-56.055-55.953-162.253-16.043-166.878-14.277z"/></g></g></g></g></svg>