<svg id="Objects" height="512" viewBox="0 0 64 64" width="512" xmlns="http://www.w3.org/2000/svg"><path d="m61.947 13.333a4.664 4.664 0 0 0 -6.361-1.7l-1.994 1.147a123.4 123.4 0 0 0 -17.217-1.38 123.387 123.387 0 0 0 -17.2 1.378l-1.994-1.152a4.647 4.647 0 0 0 -4.93 7.873c-.508.07-1.018.127-1.524.2l-1.991-1.146a4.657 4.657 0 0 0 -4.727 8.024v16.182a4.657 4.657 0 0 0 4.727 8.024l2.013-1.162a123.206 123.206 0 0 0 17.198 1.379 123.167 123.167 0 0 0 17.179-1.374l2.013 1.162a4.648 4.648 0 0 0 4.928-7.875c.5-.069 1-.135 1.506-.211l2.013 1.161a4.656 4.656 0 0 0 4.727-8.023v-16.188a4.662 4.662 0 0 0 1.634-6.319zm-10.179 34.745a2.657 2.657 0 0 1 -3.629.973l-2.317-1.338a1 1 0 0 0 -.5-.134.973.973 0 0 0 -.152.012 121.167 121.167 0 0 1 -17.223 1.409 121.206 121.206 0 0 1 -17.242-1.4 1 1 0 0 0 -.652.122l-2.317 1.329a2.657 2.657 0 0 1 -2.657-4.6l.43-.248a1 1 0 0 0 .5-.866v-17.337a1 1 0 0 0 -.5-.866l-.43-.248a2.657 2.657 0 0 1 2.657-4.6l2.3 1.326a1 1 0 0 0 .653.123 121.006 121.006 0 0 1 17.242-1.407 121.019 121.019 0 0 1 17.26 1.407 1.011 1.011 0 0 0 .653-.122l2.3-1.327a2.656 2.656 0 1 1 2.655 4.6l-.429.248a1 1 0 0 0 -.5.865v17.336a1 1 0 0 0 .5.865l.429.248a2.661 2.661 0 0 1 .969 3.63zm7.045-10.8.429.249a2.656 2.656 0 1 1 -2.656 4.6l-2.316-1.338a1.012 1.012 0 0 0 -.653-.122c-.583.09-1.167.167-1.751.249v-14.339a4.657 4.657 0 0 0 -4.727-8.024l-1.994 1.147a123.182 123.182 0 0 0 -17.217-1.377 123.148 123.148 0 0 0 -13.472.88v-.131a1 1 0 0 0 -.5-.866l-.43-.248a2.657 2.657 0 0 1 2.657-4.6l2.3 1.327a1.01 1.01 0 0 0 .653.122 121.24 121.24 0 0 1 17.239-1.407 121.254 121.254 0 0 1 17.261 1.41 1.01 1.01 0 0 0 .652-.122l2.3-1.327a2.656 2.656 0 1 1 2.655 4.6l-.428.248a1 1 0 0 0 -.5.866v17.336a1 1 0 0 0 .498.865z"/><path d="m20.456 30.928-.888.46-.888.458a16.229 16.229 0 0 0 13.5 7.975l.105-2a14.235 14.235 0 0 1 -11.829-6.893z"/></svg>