<?xml version="1.0"?>
<svg xmlns="http://www.w3.org/2000/svg" id="outline" viewBox="0 0 64 64" width="512" height="512"><path d="M53,12c-8.287,0-16.576-3.922-20.157-9.538a1,1,0,0,0-1.686,0C27.576,8.078,19.287,12,11,12a1,1,0,0,0-1,1V33c0,13.323,12.983,22.776,21.757,24.97a1,1,0,0,0,.486,0C41.017,55.776,54,46.323,54,33V13A1,1,0,0,0,53,12ZM52,33c0,12.554-12.887,21.07-20,22.967C24.887,54.07,12,45.554,12,33V13.982c8.006-.285,15.9-3.955,20-9.249,4.1,5.294,11.993,8.964,20,9.249ZM17,30A15,15,0,1,0,32,15,15.017,15.017,0,0,0,17,30Zm28,0A13,13,0,1,1,32,17,13.015,13.015,0,0,1,45,30ZM26.274,34.312,37.293,23.293a1,1,0,0,1,1.414,1.414l-12,12A1,1,0,0,1,26,37a.959.959,0,0,1-.16-.013,1,1,0,0,1-.735-.54l-2-4a1,1,0,0,1,1.79-.894Z"/></svg>
