<svg width="54" height="104" viewBox="0 0 54 104" fill="none" xmlns="http://www.w3.org/2000/svg">
<path d="M10.8179 88.7792C10.92 88.6234 11.1241 88.5195 11.2771 88.5195C11.022 88.4156 10.6648 88.1039 10.7159 87.7922C10.8179 87.4286 11.4812 87.4805 11.6853 87.5844C11.5322 87.4286 11.6853 87.1169 11.8894 87.013C12.0425 86.9611 12.1956 86.9611 12.2976 87.013L13.7773 84.4676L13.2161 82.1818C13.165 82.0779 12.8079 82.0779 12.7568 81.9221C12.0425 80.052 12.6038 78.026 14.4917 77.2987C16.3286 76.5715 18.4206 77.4546 19.1859 79.3247V79.3767L20.7677 83.5325L12.5017 88.4676C12.1956 88.6753 11.8894 88.8312 11.5833 88.987L11.2771 89.1948C11.2261 89.1948 11.1751 89.2468 11.1751 89.2468C11.124 89.2987 11.073 89.2987 10.971 89.2987C10.8689 89.1948 10.7669 88.9351 10.8179 88.7792Z" fill="#FF948F"/>
<path d="M6.63312 56.8311C4.54111 57.6623 3.4696 60.0519 4.28599 62.1818L13.0622 83.8441C17.0931 82.909 19.9505 81.1428 19.9505 81.1428L11.8886 59.2207C11.0723 57.0909 8.72512 55.9999 6.63312 56.8311Z" fill="#8FB8E5"/>
<path d="M18.9825 78.5454C16.7884 79.6363 14.3903 80.5194 11.9921 80.935C11.839 80.935 11.9411 81.1428 12.0431 81.1428C14.4923 80.7272 16.8905 79.7921 19.0845 78.7012C19.2376 78.6493 19.1356 78.4934 18.9825 78.5454Z" fill="white"/>
<path d="M17.1947 25.0909C17.1947 25.0909 10.7656 24 10.8677 21.922C10.9697 19.6363 15.1027 18.4415 18.0622 18.2337L17.0927 14.4935C17.0927 14.4935 11.8882 14.961 8.3675 17.6104C3.11197 21.6104 5.4591 27.7922 15.3579 30.3376C22.6544 32.2078 17.1947 25.0909 17.1947 25.0909Z" fill="#FF948F"/>
<path d="M16.2776 17.8701C16.7368 18.0779 18.6247 19.1688 19.0839 19.0649C19.4411 18.961 18.9819 18.4416 18.5226 17.974C19.4411 17.8701 21.38 17.1948 21.329 16.8831C21.278 16.5714 20.0534 16.8312 19.0329 17.039C19.7983 16.8312 19.9003 16.7273 20.6657 16.5195C20.8698 16.4675 21.5331 16.1558 21.329 15.8961C21.1759 15.6364 19.5431 15.9481 18.8288 16.1039C19.4921 15.8961 19.288 15.9481 19.9513 15.7403C20.3085 15.6364 20.6657 15.5325 20.9208 15.2727C21.0228 15.1688 21.0739 15.0649 21.0228 14.961C20.9718 14.8571 20.8187 14.8052 20.5636 14.8052C20.0534 14.8052 19.339 14.9091 18.2675 15.2208C19.186 14.8571 19.3901 14.8571 19.6962 14.6494C19.7472 14.5974 19.8493 14.5455 19.8493 14.4935C19.8493 14.3896 19.7983 14.3377 19.7472 14.2857C19.6452 14.2338 19.4921 14.1818 19.3901 14.1818C18.1144 14.1818 16.2265 14.5455 15.053 15.4286C14.7468 15.6364 14.5938 15.9481 14.5938 16.3117C14.5938 16.6753 14.8489 17.039 15.155 17.2468C15.4612 17.4545 16.5837 17.5065 16.9409 17.6623" fill="#FF948F"/>
<path d="M19.695 22.7014H45.5134C49.0851 22.7014 51.9935 19.7403 51.9935 16.104V10.1299C51.9935 6.49357 49.0851 3.53253 45.5134 3.53253H34.6962H19.695C16.1232 3.53253 13.2148 6.49357 13.2148 10.1299V16.104C13.2148 19.7403 16.1232 22.7014 19.695 22.7014Z" fill="#EBEDF5"/>
<path d="M37.9101 11.1169C39.0326 11.065 39.9511 12.2078 40.1552 13.3507C40.3593 14.7533 39.4408 16.4156 38.9306 17.6624C38.5734 18.5455 38.4203 18.9611 37.1447 20.7273C37.6039 21.2468 38.5734 22.0779 38.3183 22.3896C38.0632 22.7013 37.2978 22.1818 36.8896 21.8182C37.3488 22.8052 36.9916 23.7922 36.2773 23.7403C35.614 23.7403 34.2363 22.5455 33.7261 22.0779C32.5525 20.987 31.7361 19.5325 30.6136 18.4416C29.9503 17.8182 28.8787 17.3507 28.3175 16.6234V16.6753C27.297 15.8442 26.1234 14.9611 25.5621 13.7663C25.4091 13.4546 25.307 13.0909 25.3581 12.7792C25.4601 12.4676 25.8173 12.1559 26.1234 12.3117C25.6642 12 25.307 11.6364 25.1029 11.1169C24.8988 10.5974 24.9499 10.026 25.256 9.61041C25.5621 9.19483 26.2255 8.98703 26.6847 9.29872C26.4296 8.5195 26.3785 7.58444 27.1949 7.16885C27.399 7.06496 27.6542 7.01301 27.8583 7.06496C28.6236 7.11691 29.2359 7.58444 29.7972 8.10392C29.8992 7.53249 29.9503 6.96106 30.1544 6.44158C30.3585 5.9221 30.7667 5.45457 31.2769 5.24678C32.1953 4.88314 33.2158 5.45457 33.9812 6.07794C34.7466 6.75327 35.4099 7.58444 35.9712 8.46755C36.1242 8.05197 36.7365 7.94807 37.0937 8.20781C37.4509 8.46755 37.6039 8.93509 37.706 9.35067C37.757 9.87015 37.8591 10.4935 37.9101 11.1169Z" fill="#062B4E"/>
<path d="M27.86 54.0779L32.5542 54.8052H32.6563L37.3506 55.5325L41.7387 57.0909L41.3305 62.1299C40.7692 67.1169 39.7997 64.5714 38.218 64.8831L32.2481 66.1299L30.9725 65.9221H30.8704L29.5948 65.7143L24.2883 62.6494C22.8596 61.8182 22.0942 60.052 22.3493 58.4416L23.2678 53.0909L27.86 54.0779Z" fill="#8FB8E5"/>
<path d="M7.65294 64.4156C7.65294 64.4156 29.3894 65.7662 29.5425 65.7662C31.8386 65.9221 33.8796 64.1039 33.9816 61.7662C34.1347 59.4286 32.3488 57.3506 30.0527 57.2467C29.9507 57.2467 8.62241 56.2597 8.62241 56.2597C8.46934 56.2078 8.31626 56.2078 8.16319 56.2078C5.91811 56.0519 3.97918 57.8182 3.87713 60.1039C3.72405 62.3377 5.35684 64.2597 7.55089 64.4675L7.65294 64.4156Z" fill="#8FB8E5"/>
<path d="M20.2046 102.338C20.3067 102.182 20.5108 102.078 20.6638 102.078C20.4087 101.974 20.0515 101.662 20.1026 101.351C20.2046 100.987 20.8679 101.039 21.072 101.143C20.919 100.987 21.072 100.675 21.2761 100.571C21.4292 100.52 21.5823 100.52 21.6843 100.571L23.164 98.026L22.6028 95.7403C22.5517 95.6364 22.1946 95.5845 22.1436 95.4806C21.4292 93.6104 22.0415 91.5844 23.8784 90.8572C25.7153 90.1299 27.8073 91.065 28.5216 92.9351V92.987L30.1034 97.1429L21.9395 101.974C21.6333 102.182 21.3272 102.338 21.021 102.494L20.7149 102.649C20.6638 102.649 20.6128 102.701 20.6128 102.701C20.5618 102.753 20.5108 102.753 20.4087 102.753C20.2046 102.805 20.1026 102.545 20.2046 102.338Z" fill="#FF948F"/>
<path d="M19.4423 77.2467C19.4423 77.2467 38.7296 67.013 38.8826 66.9091C40.9236 65.8182 41.74 63.2208 40.6685 61.1428C39.597 59.0649 37.0458 58.2337 35.0048 59.3247C34.9027 59.3766 16.1257 69.7143 16.1257 69.7143C15.9726 69.7662 15.8706 69.8182 15.7175 69.9221C13.7275 70.961 12.9622 73.4545 13.9827 75.4805C15.0032 77.4545 17.3503 78.2338 19.3402 77.2987L19.4423 77.2467Z" fill="#8FB8E5"/>
<path d="M16.2273 70.3897C14.1353 71.1689 13.0638 73.5585 13.8292 75.6884L22.4523 97.4026C26.4832 96.5195 29.3916 94.7533 29.3916 94.7533L21.4318 72.7793C20.6664 70.6494 18.3193 69.6104 16.2273 70.3897Z" fill="#8FB8E5"/>
<path d="M27.9611 12.1558C28.6244 12.0519 32.7574 11.3247 35.4617 13.5584C35.4617 14.5974 35.0024 15.6883 35.0024 16.7273C35.0024 16.8831 35.0535 17.0909 35.2065 17.0909C35.3086 17.0909 35.3596 16.987 35.4106 16.935C35.5127 16.7792 35.6147 16.6234 35.7168 16.4675C35.5127 16.987 35.2065 18.026 35.6147 18.1818C35.9719 18.3376 36.5842 17.2467 36.7373 16.5714C36.8393 16.5195 36.9414 16.5195 37.0434 16.5195C37.9108 16.4675 38.7272 17.1428 38.7783 18.026C38.8293 18.9091 38.166 19.7402 37.2985 19.7922C37.0434 19.7922 36.8393 19.7922 36.5842 19.6883L36.5332 24.6234C36.5332 24.7792 36.5842 24.9351 36.5842 25.1428C36.5842 27.2208 34.9004 28.8831 32.8594 28.8831C30.8184 28.8831 29.1856 27.1688 29.1856 25.0909C29.1856 24.9351 29.1856 24.7792 29.2367 24.6234V22.5454C27.2977 21.8701 26.9916 19.8441 27.2977 18.026C27.5018 16.1558 27.91 12.2597 27.9611 12.1558Z" fill="#FF948F"/>
<path d="M37.4002 18.2857C37.2471 18.0779 37.043 17.8701 36.7879 17.7662C36.7879 17.7662 36.8389 17.7143 37.043 17.6104C37.2471 17.5584 37.6553 17.5584 37.6553 17.5584C37.3492 17.4026 36.992 17.4545 36.7369 17.6623C36.4307 17.9221 36.3287 18.2337 36.3797 18.5454C36.3797 18.5454 36.5328 17.974 36.7369 17.8701L37.4002 18.2857Z" fill="#A8425F"/>
<g style="mix-blend-mode:soft-light">
<path d="M29.1875 22.4935C29.1875 22.4935 30.1059 22.8571 31.3816 22.7532L29.1875 24.6753V22.4935Z" fill="#413957"/>
</g>
<path d="M32.3486 18.4935C32.1955 19.1169 31.5322 19.6883 30.5117 19.1689C30.5117 19.1689 31.073 19.3247 31.5832 19.1689C32.0425 18.9611 32.3486 18.4935 32.3486 18.4935Z" fill="#A8425F"/>
<path d="M20.7682 26.5454C23.8807 26.3896 26.1258 25.6623 29.0342 25.2987C29.0342 25.2987 30.1567 27.3766 32.759 27.3766H32.81H32.861C35.4633 27.3766 36.5858 25.2987 36.5858 25.2987C39.4942 25.6623 40.4637 25.7662 42.7598 27.6883C44.5967 30.2337 42.7088 40.0519 42.7088 40.0519L41.7393 57.1428C41.7393 57.1428 40.5147 57.6104 32.9631 57.6623H32.912H32.861C25.3094 57.6623 23.0643 56.4675 23.0643 56.4675L23.2174 39.3246C23.1664 39.3766 19.7477 27.2727 20.7682 26.5454Z" fill="#8FB8E5"/>
<path d="M17.1945 23.6884C20.9703 24.9351 23.8787 24.1039 29.6955 26.8052C31.6344 27.6884 29.8486 30.8052 28.4709 32.4156C28.4199 32.4676 28.3688 32.5195 28.2668 32.6234C27.9096 33.039 27.3484 33.3507 26.685 33.5585C26.4809 33.6104 26.2768 33.6624 26.0727 33.7143C23.6236 34.1299 19.8477 33.1948 16.174 31.7403C16.225 31.6884 15.7148 28.2078 17.1945 23.6884Z" fill="#8FB8E5"/>
<path d="M17.9619 32.2597C17.9619 29.6103 18.3701 26.9091 18.9824 24.3636C19.0334 24.2597 18.8293 24.1558 18.7783 24.3116C18.166 26.8571 17.7578 29.6103 17.7578 32.2597C17.7578 32.3636 17.9619 32.3636 17.9619 32.2597Z" fill="white"/>
<path d="M34.7464 28.6233C33.828 28.935 32.9095 28.987 31.9911 28.8311C31.838 28.8311 31.787 29.0389 31.9401 29.0389C32.9095 29.1948 33.879 29.0909 34.7974 28.8311C34.9505 28.7792 34.8995 28.5714 34.7464 28.6233Z" fill="white"/>
<path d="M37.8101 25.7662C37.555 26.4935 37.1978 27.0649 36.5345 27.5325C36.4324 27.6364 36.5345 27.7922 36.6365 27.7403C37.2998 27.2208 37.708 26.6494 38.0142 25.8701C38.0652 25.7143 37.8611 25.6623 37.8101 25.7662Z" fill="white"/>
<path d="M30.208 28.2597C29.0855 27.7922 28.2181 26.9091 27.8099 25.7662C27.7589 25.6623 27.5548 25.7143 27.6058 25.8182C28.065 27.013 28.9834 28 30.157 28.4675C30.2591 28.5195 30.3101 28.3117 30.208 28.2597Z" fill="white"/>
<path d="M38.8309 36.1039C38.8309 36.1039 31.1772 45.974 25.1053 43.2727C19.0333 40.5714 20.8192 25.4546 20.8192 25.4546H24.7991C24.7991 25.4546 24.8501 36.6234 27.4014 37.7662C30.0036 38.9091 34.5448 30.9091 34.5448 30.9091L38.8309 36.1039Z" fill="#FF948F"/>
<path d="M30.5117 34.7013C34.1345 30.961 35.8693 28.0519 35.8693 28.0519L36.3795 27.6883C36.7877 27.0129 37.4 26.4935 38.1654 26.1298C40.1043 25.2987 42.3494 26.2337 43.1658 28.2077C43.2168 28.3116 43.2168 28.3636 43.2678 28.4675C43.4719 28.987 43.523 29.6103 43.3699 30.2857C43.3189 30.4935 43.3189 30.8571 43.2678 31.0649C42.5535 33.5065 39.339 37.1428 36.4306 39.8441C36.4306 39.8961 33.4711 38.3896 30.5117 34.7013Z" fill="#8FB8E5"/>
<path d="M37.8616 38.4415C36.688 37.8701 35.6165 36.987 34.647 36.1558C33.6776 35.3246 32.7591 34.3896 31.9938 33.3506C31.9427 33.2467 31.7386 33.3506 31.8407 33.4545C32.606 34.4935 33.5755 35.4285 34.545 36.3117C35.5655 37.1948 36.637 38.0259 37.8105 38.6493C37.8616 38.7013 37.9636 38.4935 37.8616 38.4415Z" fill="white"/>
<g style="mix-blend-mode:soft-light">
<path d="M29.9531 18.1818H31.3308L31.0757 15.1688H30.5144L29.9531 18.1818Z" fill="#413957"/>
</g>
<path d="M23.6234 27.1688C23.9806 26.8571 25.7154 25.4545 25.7665 24.987C25.8175 24.6234 25.1542 24.8312 24.5929 25.0909C24.848 24.2078 24.9501 22.0779 24.695 22.026C24.3888 21.974 24.1337 23.1688 23.9296 24.2597C24.0316 23.4286 23.9806 23.3247 24.0827 22.5454C24.1337 22.3377 24.0827 21.6104 23.7765 21.6623C23.4704 21.7143 23.1132 23.3766 22.9601 24.1039C23.0112 23.3766 23.0112 23.6364 23.0622 22.9091C23.1132 22.5454 23.1642 22.1818 23.0111 21.8182C22.9601 21.7143 22.9091 21.6104 22.756 21.6104C22.654 21.6104 22.5519 21.7662 22.4499 21.974C22.2458 22.4935 22.0417 23.1688 21.9396 24.2597C21.9907 23.2727 22.0417 23.0649 21.9907 22.7013C21.9907 22.5974 21.9907 22.4935 21.8886 22.4935C21.8376 22.4416 21.7355 22.4416 21.6335 22.5454C21.5825 22.5974 21.4294 22.7532 21.3784 22.8571C20.9191 24.0519 20.511 25.974 20.8171 27.4286C20.8681 27.7922 21.0722 28.0519 21.4294 28.2078C21.7355 28.3636 22.1437 28.2597 22.4499 28.0519C22.756 27.8441 23.2663 26.8052 23.5214 26.5454" fill="#FF948F"/>
<path d="M40.7186 34.9091C39.5451 36.7792 38.0654 38.4416 36.3305 39.7922C36.2285 39.8442 36.3816 40 36.4836 39.9481C38.2184 38.5455 39.6981 36.8831 40.8717 35.013C40.9227 34.9091 40.7697 34.8052 40.7186 34.9091Z" fill="white"/>
<path d="M36.2283 39.8442C36.0752 39.7922 35.9732 39.6883 35.8201 39.6364C35.7181 39.5844 35.616 39.7403 35.7181 39.7922C35.8711 39.8442 35.9732 39.9481 36.1263 40C36.2793 40.052 36.3303 39.8961 36.2283 39.8442Z" fill="white"/>
<path d="M41.0235 35.8441C40.7174 36.2078 40.3092 36.3636 39.85 36.3636C39.7479 36.3636 39.7479 36.5195 39.85 36.5714C40.3602 36.5714 40.8194 36.4156 41.1766 36C41.2276 35.8961 41.1256 35.7402 41.0235 35.8441Z" fill="white"/>
<path d="M39.0347 25.974C38.2694 25.974 37.555 26.4416 36.9427 26.9091C36.0243 27.6364 35.2079 28.5195 34.4425 29.4026C33.1159 30.961 31.9933 32.7792 30.6157 34.2857C30.5136 34.3896 30.6667 34.4935 30.7688 34.4416C32.0444 33.039 33.1159 31.3766 34.3405 29.9221C35.0548 29.039 35.8202 28.2078 36.6876 27.4286C37.3509 26.8571 38.1673 26.1818 39.0858 26.1818C39.1368 26.1818 39.1368 25.974 39.0347 25.974Z" fill="white"/>
<path d="M30.6157 34.5454C30.7688 34.8571 30.9219 35.1688 31.126 35.4805C31.177 35.5844 31.3301 35.4805 31.2791 35.3766C31.075 35.0649 30.8709 34.8052 30.7688 34.4415C30.7178 34.3376 30.5647 34.4415 30.6157 34.5454Z" fill="white"/>
<path d="M41.6347 57.039C35.2056 56.9871 28.8786 55.4286 23.1639 52.5195C23.0618 52.4676 22.9598 52.6234 23.0618 52.6754C28.8276 55.6364 35.2056 57.1949 41.6347 57.2468C41.7878 57.2468 41.7878 57.039 41.6347 57.039Z" fill="white"/>
<path d="M28.5731 92.4675C26.4301 93.6104 24.0319 94.5974 21.6338 95.1169C21.5317 95.1688 21.5827 95.3247 21.6848 95.3247C24.0829 94.8052 26.4811 93.8182 28.6751 92.6753C28.7772 92.5714 28.6751 92.4156 28.5731 92.4675Z" fill="white"/>
<path d="M16.6853 82.7013C16.1751 81.4545 15.6648 80.2597 15.1546 79.013C14.6443 77.7662 14.032 76.5714 13.7259 75.2727C13.4197 74.1818 13.4197 73.0389 13.93 72C14.4402 71.013 15.2566 70.2337 16.1751 69.6623C16.2771 69.6104 16.1751 69.4026 16.073 69.5065C14.3382 70.5454 13.0626 72.3117 13.3177 74.4415C13.4708 75.7922 14.0831 77.0909 14.5933 78.3377C15.2056 79.8441 15.8689 81.3506 16.4812 82.8052C16.5833 82.961 16.7363 82.8571 16.6853 82.7013Z" fill="white"/>
<path d="M23.8279 65.5584C26.175 64.1558 28.5732 62.8052 30.9203 61.4026C31.0224 61.3506 30.9203 61.1428 30.8183 61.2467C28.4711 62.6493 26.073 64 23.7259 65.4026C23.6238 65.4545 23.7259 65.6623 23.8279 65.5584Z" fill="white"/>
<path d="M26.1763 61.4026C26.6355 62.078 27.1967 62.5974 27.9111 62.9611C28.0131 63.013 28.1152 62.8572 28.0131 62.8052C27.3498 62.4416 26.7885 61.9221 26.3803 61.2987C26.2783 61.1948 26.0742 61.2987 26.1763 61.4026Z" fill="white"/>
</svg>
