<svg width="98" height="104" viewBox="0 0 98 104" fill="none" xmlns="http://www.w3.org/2000/svg">
<g clip-path="url(#clip0)">
<path d="M90.5679 20.5269L65.7451 27.5481C62.2515 28.5643 58.758 26.4395 57.7467 22.9289L56.1838 17.2011C55.2644 13.6906 57.287 10.0876 60.6886 9.16379L64.6419 8.05519L85.5114 2.23504C89.005 1.21882 92.4985 3.34364 93.5098 6.8542L95.0728 12.582C96.0841 15.9078 94.0615 19.5107 90.5679 20.5269Z" fill="#EBEDF5"/>
<path d="M71.4451 31.6131C71.4451 31.6131 63.6305 24.9615 62.7111 17.2937C61.7918 9.62588 68.2273 8.79442 71.9967 10.0878C75.7661 11.3812 77.8806 13.506 85.5113 14.6146C93.142 15.7232 97.6469 26.0701 89.1887 30.5969C80.7306 35.1237 71.4451 31.6131 71.4451 31.6131Z" fill="#062B4E"/>
<path d="M77.6967 75.218C79.3515 75.5875 79.5354 76.9733 79.6273 78.359C79.7193 79.8372 79.5354 81.3153 80.2709 82.701C80.4547 83.0706 80.6386 83.3477 81.0064 83.4401C81.3741 83.4401 81.466 83.0706 81.6499 82.7934C82.4773 80.9458 83.4887 75.0332 83.5806 74.017C83.5806 73.9246 81.0064 72.9084 79.6273 72.7236C79.0757 73.6475 78.8918 74.9408 77.6967 75.218Z" fill="#FF948F"/>
<path d="M80.271 19.4184C78.8919 17.6631 78.5242 19.6955 77.6968 20.065C77.329 21.266 76.5016 22.3746 75.7661 23.3908C75.5822 23.8528 75.6742 24.6842 74.7548 24.2223C74.6629 24.4071 74.479 24.4994 74.3871 24.6842C74.1113 25.8852 75.6742 25.7004 75.7661 26.5319C75.95 26.5319 76.1339 26.5319 76.3177 26.5319C76.4097 25.5157 76.5935 24.4994 77.9726 24.5918C78.5242 24.5918 79.0758 24.5918 79.0758 23.8528C79.0758 23.3908 79.2597 22.9289 79.6274 22.5594C79.6274 21.5432 79.6274 20.4346 80.271 19.4184Z" fill="#062B4E"/>
<path d="M76.9616 79.7441C75.9503 81.407 74.3874 81.9613 72.5487 81.869C74.7551 82.608 75.0309 83.3471 73.9277 85.7491C73.468 86.8577 72.6406 87.7815 72.5487 89.0749C72.4567 89.5368 72.4567 90.0911 72.9164 90.3682C73.3761 90.6454 78.6164 86.0262 79.8116 83.7166C80.4552 82.7928 77.1455 81.0375 76.9616 79.7441Z" fill="#FF948F"/>
<path d="M71.9047 24.0369C72.824 23.9445 73.8353 23.3902 74.7547 24.2217C75.674 24.6836 75.5821 23.8522 75.766 23.3902C74.2031 23.1131 74.0192 21.8197 73.8353 20.5264C73.2837 21.9121 72.5482 22.9283 71.9047 24.0369Z" fill="#F26A6C"/>
<path d="M74.388 24.6846L78.6171 20.435L73.8364 17.3863C73.8364 17.3863 75.4912 14.3377 73.1009 13.8758C70.7106 13.4139 71.9977 16.4625 71.9977 16.4625C71.9977 16.4625 69.5154 14.4301 66.5734 14.7996C63.6315 15.0768 63.6315 16.5549 63.6315 17.3863C63.6315 17.3863 66.0218 23.1141 68.1363 23.9456C70.1589 24.8694 70.7105 24.9618 71.9977 23.9456C71.9057 24.038 72.917 22.837 74.388 24.6846Z" fill="#FF948F"/>
<path d="M68.1378 23.3911C68.1378 23.2987 68.2298 23.1139 68.2298 23.0216C68.2298 22.9292 68.3217 22.8368 68.4136 22.9292C68.5056 22.9292 68.5056 23.0216 68.5975 23.1139C68.8733 23.3911 68.8733 23.5759 69.333 24.4997C68.8733 23.4835 68.7814 22.8368 68.6894 22.2825C68.6894 22.0053 68.6894 21.913 68.7814 21.8206C68.8733 21.7282 68.9652 21.8206 69.0572 21.913C69.333 22.1901 69.5169 22.5596 69.6088 22.8368C69.8846 23.4835 69.7927 23.2987 70.0685 23.9454C69.8846 23.2063 69.4249 21.6358 69.6088 21.451C69.7927 21.2663 70.1604 21.913 70.2523 22.0977C70.5282 22.8368 70.6201 22.9292 70.8959 23.6682C70.6201 22.652 70.1604 21.451 70.5282 21.3587C70.804 21.2663 71.6314 23.2063 71.9072 24.1302C72.3669 23.6682 72.8266 23.1139 72.9185 23.4835C73.1024 23.9454 73.1024 25.4235 72.9185 25.8854L74.4814 30.7818L70.4362 32.0751C70.6201 31.798 68.3217 24.5921 68.1378 23.3911Z" fill="#FF948F"/>
<path d="M63.4486 25.0538C63.4486 24.9614 63.5405 24.7766 63.5405 24.6843C63.5405 24.5919 63.6325 24.5919 63.8164 24.5919C63.9083 24.5919 63.9083 24.6843 64.0002 24.7766C64.276 25.0538 64.276 25.3309 64.5518 26.2548C64.1841 25.1462 64.1841 24.4995 64.0922 23.9452C64.0922 23.668 64.1841 23.5757 64.276 23.4833C64.368 23.3909 64.4599 23.4833 64.5518 23.5757C64.8276 23.8528 64.9196 24.2223 65.0115 24.5919C65.1954 25.2386 65.1954 25.0538 65.3793 25.7005C65.1954 24.9614 64.9196 23.2985 65.1954 23.1137C65.3793 22.929 65.747 23.5757 65.747 23.8528C65.9309 24.5919 66.0228 24.6843 66.2986 25.5157C66.1148 24.4995 65.8389 23.2061 66.1148 23.2061C66.3906 23.2061 67.0341 25.1462 67.218 26.07C67.6777 25.6081 68.2293 25.1462 68.3212 25.5157C68.4132 25.9776 68.3212 27.4558 68.1373 27.8253L69.2406 32.814L65.1035 33.7378C65.1035 33.7378 63.4486 26.3472 63.4486 25.0538Z" fill="#FF948F"/>
<path d="M68.4127 22.282L67.1256 22.744L66.2982 19.8801L66.7579 19.6953L68.4127 22.282Z" fill="#413957"/>
<path d="M94.6142 46.6714C91.8561 41.7751 90.0174 29.3958 88.5464 23.2985C87.0754 17.2012 80.2721 19.4184 80.2721 19.4184L78.985 18.5869L73.193 25.3309L73.8366 26.7166C70.435 28.01 69.1478 30.1348 69.1478 30.1348C64.9188 29.3034 63.5397 31.7053 63.5397 31.7053C63.5397 31.7053 65.3785 45.3781 68.5043 44.9162C71.6301 44.4542 74.3882 41.4056 74.3882 41.4056L75.3995 48.3343C75.3995 48.3343 64.7349 53.9697 61.793 56.926C59.7704 58.866 60.6897 61.5452 61.4252 62.9309C61.4252 63.8547 61.701 64.871 62.2526 66.1643C63.4478 68.8434 71.9059 82.9781 71.9059 82.9781C78.3415 82.0543 78.0657 79.098 78.0657 79.098L76.8705 76.696C80.1802 74.8484 80.456 71.3378 80.456 71.3378L74.9398 64.5014C74.9398 64.5014 81.6512 63.4852 87.627 60.7137C93.6948 57.8498 94.89 52.4916 93.1432 47.5953L94.6142 46.6714Z" fill="#DA281C"/>
<path d="M76.8716 76.6956C76.8716 76.6956 73.7458 69.2125 73.1941 66.9029C72.6425 64.5934 74.9409 64.6857 75.9522 64.501" stroke="white" stroke-width="0.25" stroke-miterlimit="10"/>
<path d="M87.7189 29.8574C87.7189 29.8574 82.0189 37.4329 76.6866 39.1881C71.3543 40.9434 69.1478 30.1346 69.1478 30.1346" stroke="white" stroke-width="0.25" stroke-miterlimit="10"/>
<path d="M94.6148 46.6709L91.5809 48.149L89.8341 44.3613L89.4664 48.7033C89.4664 48.7033 84.1341 51.3825 75.7679 50.7358L75.3082 48.0567" stroke="white" stroke-width="0.25" stroke-miterlimit="10"/>
<path d="M61.4254 62.9309C61.4254 62.9309 60.4141 58.9584 65.6544 56.3717C70.8948 53.785 75.6755 50.7363 75.6755 50.7363" stroke="white" stroke-width="0.25" stroke-miterlimit="10"/>
<path d="M81.8347 20.5264C81.8347 20.5264 78.8008 30.2266 77.2378 31.0581C75.6749 31.8895 73.7443 26.7161 73.7443 26.7161" stroke="white" stroke-width="0.25" stroke-miterlimit="10"/>
<path d="M70.0676 33.0909C70.0676 33.0909 71.9983 30.1346 74.2967 29.3955" stroke="white" stroke-width="0.25" stroke-miterlimit="10"/>
<path d="M75.2155 25.7924L80.2719 19.418" stroke="white" stroke-width="0.25" stroke-miterlimit="10"/>
<path d="M64 34.1069C64 34.1069 66.1145 32.5364 68.5968 32.9059" stroke="white" stroke-width="0.25" stroke-miterlimit="10"/>
<path d="M53.2804 71.7156C53.9163 71.5562 53.9958 72.4331 54.6317 72.5128C54.3138 73.7884 53.9958 75.064 53.5984 76.3395C53.4394 76.8179 53.2009 77.2962 52.883 77.6948C52.4061 78.1732 51.6907 78.3326 51.2932 77.934C50.8163 77.5354 51.4522 77.1368 51.6907 76.8179C52.4061 75.8612 52.1676 74.3465 51.5317 73.2304C51.4522 72.5926 53.042 71.9548 53.2804 71.7156Z" fill="#C9C5D7"/>
<path d="M59.8779 65.7369C59.9574 68.1286 59.083 68.607 58.765 71.0784C58.6855 71.6364 58.924 72.2742 59.1625 72.7526C59.4804 73.4701 59.9574 74.1079 60.9112 73.8687C61.1497 73.789 61.4676 73.789 61.6266 74.0281C61.7856 74.347 61.5471 74.5862 61.3087 74.8254C60.4343 75.8618 59.242 75.8618 58.3676 74.8254C57.4932 73.789 57.1753 72.5931 57.3342 71.2378C57.4137 70.9987 56.7778 71.7959 56.5394 71.6364C55.9035 71.9553 55.347 72.2742 54.7111 72.354C54.2342 72.8323 53.5983 73.1512 52.8829 73.2309C52.5649 73.2309 52.1675 73.2309 52.0085 73.5498C51.8496 75.0645 51.0547 76.1807 49.7829 76.8184C48.67 77.3765 47.9546 78.4926 46.7623 78.8912C46.3649 78.8115 45.9674 78.8115 45.4905 78.7318C45.0931 78.094 46.4444 77.2171 46.8418 76.8982C47.7162 76.3401 48.1136 75.5429 48.67 74.6659C49.3854 73.6295 49.5444 72.912 49.3854 71.9553C49.0675 70.042 48.67 68.5272 50.1803 65.9761C48.511 64.5411 47.6367 61.113 46.2854 59.2794C44.2982 58.9605 42.9469 57.5255 41.6751 56.8877C40.9597 56.9674 40.1648 57.2066 39.9263 56.0905C39.8468 56.0107 39.8468 55.8513 39.9263 55.6918C40.1648 55.2932 40.4827 55.054 40.8802 54.8149C42.152 54.3365 43.2648 54.8946 44.5366 55.0541C46.0469 55.2135 46.0469 55.2932 46.0469 53.619C46.2059 52.9015 46.8418 52.5826 47.3982 52.184C48.0341 51.7854 45.0136 52.2637 44.0597 51.5462C42.7084 50.5098 41.9135 50.4301 42.311 48.6762C42.4699 48.1979 42.7879 47.9587 43.1853 47.7195C43.3443 47.6398 43.5828 47.6398 43.8212 47.6398C44.9341 47.9587 45.8084 46.8426 46.9213 47.0817C47.4777 47.1615 48.1136 47.2412 48.67 47.4006C49.4649 47.879 52.088 52.1043 52.088 52.1043C51.6906 52.6624 51.2136 53.2204 50.9752 53.9379C50.7367 54.4163 50.9752 54.6554 51.4521 54.5757C52.1675 54.496 52.5649 53.6988 53.2803 53.7785C55.1881 54.6554 55.9035 56.6485 57.0958 58.1632C58.6855 60.236 59.7189 62.7872 59.8779 65.418C59.8779 65.6572 59.8779 65.6572 59.8779 65.7369Z" fill="#DFDBEC"/>
<path d="M48.7493 61.1925C48.9877 59.6777 49.9416 59.04 51.1339 59.598C51.7698 59.9169 52.4057 59.9966 53.1211 59.8372C53.757 59.7575 54.3929 59.7575 54.9494 60.0763C55.8237 60.5547 56.1417 61.1925 55.6648 62.0694C55.4263 62.5478 55.1083 63.0261 54.7109 63.4247C53.916 64.2219 52.8827 65.4178 51.8493 64.9394C50.5775 64.3814 49.3852 63.345 48.8288 61.8302C48.8288 61.5911 48.8288 61.3519 48.7493 61.1925Z" fill="#A3492C"/>
<path d="M43.5032 54.3369C43.3442 53.2208 44.0596 52.583 44.8545 52.0249C46.0468 51.3872 47.2391 51.0683 48.5109 51.706C49.3853 52.1844 49.3058 52.583 48.6699 53.0613C48.034 53.5397 47.3981 53.9383 46.8417 54.3369C46.5237 55.0544 45.8878 55.2936 45.1724 55.2936C44.775 55.2936 44.3775 55.2139 43.9801 55.0544C43.6621 54.895 43.5032 54.6558 43.5032 54.3369Z" fill="#A3492D"/>
<path d="M51.5311 55.2134C51.1337 55.3729 50.7362 55.8512 50.2593 55.4526C49.7824 55.054 50.1003 54.5756 50.3388 54.177C50.8157 53.4595 50.7362 52.3434 51.8491 52.2637C51.8491 52.2637 51.8491 52.3434 51.8491 52.4231C52.8029 53.619 52.7235 54.0176 51.5311 55.2134Z" fill="#A44B2F"/>
<path d="M43.8206 48.3571C44.8539 47.1612 46.4437 46.8423 47.9539 47.4801C47.636 48.1179 47.0796 47.4801 46.6821 47.7193C45.6488 47.6396 44.9334 48.8354 43.8206 48.3571Z" fill="#AD5B41"/>
<path d="M51.5316 55.2132C51.6111 54.6551 51.5316 54.097 52.1675 53.6187C52.7239 53.2998 51.9291 52.8215 52.0085 52.4229C52.7239 52.7417 52.8829 53.4593 53.3598 54.097C52.8034 54.6551 52.247 55.1334 51.5316 55.2132Z" fill="#A24D33"/>
<path d="M46.6821 47.6405C47.1591 47.5608 47.5565 47.4811 47.9539 47.4014C48.1924 47.5608 48.5104 47.6405 48.5899 47.9594C47.9539 47.8797 47.318 47.8 46.6821 47.6405Z" fill="#AC6153"/>
<path d="M7.15586 27.6445L31.8187 35.8655C35.2854 37.0541 39.1482 34.6769 40.4359 30.715L42.6149 24.2769C44.0016 20.315 42.2187 16.155 38.752 15.0655L18.6454 8.23121L14.0892 6.74549C10.6225 5.55692 6.75966 7.93406 5.47204 11.896L3.293 18.3341C2.00538 22.395 3.68919 26.456 7.15586 27.6445Z" fill="#EBEDF5"/>
<path d="M29.5398 17.1446C30.0351 14.3713 26.7665 10.9046 22.2103 11.796C17.5551 12.7865 16.7627 16.0551 11.7113 16.6494C6.65983 17.2436 -2.45255 21.1065 0.617928 29.3275C3.78745 37.5484 10.5227 40.0246 18.3474 36.0627C26.2713 32.1008 30.7284 31.9027 30.3322 26.257C29.936 20.6113 28.8465 20.9084 29.5398 17.1446Z" fill="#062B4E"/>
<path d="M35.0875 82.3184C34.9884 82.4174 33.7008 85.1907 33.6018 85.2898C31.6208 87.9641 32.8094 89.3507 35.4837 91.2326C36.5732 92.025 37.7618 92.7184 38.8513 93.5107C39.9408 94.4022 41.7237 95.2936 42.1199 94.006C41.4265 92.4212 39.0494 90.0441 38.3561 88.4593C38.0589 87.6669 37.7618 86.8745 37.8608 85.9831L39.2475 83.3088C38.158 83.4079 35.8799 83.2098 35.0875 82.3184Z" fill="#F8A4A6"/>
<path d="M4.48149 8.8252C4.58054 8.92424 4.77864 9.02329 4.87769 9.12234C4.67959 9.02329 4.58054 8.92424 4.48149 8.8252Z" fill="#DEDADB"/>
<path d="M14.8809 75.6826C14.8809 75.6826 11.8104 76.0788 10.7209 75.9798C8.04657 75.9798 7.45228 76.574 7.45228 79.2483C7.45228 81.0312 7.84848 86.7759 8.73991 86.6769C9.53229 86.6769 10.7209 82.3188 10.919 81.3283C11.2161 80.0407 14.1875 80.1398 15.3761 79.4464C15.178 78.3569 14.8809 77.0693 14.8809 75.6826Z" fill="#F8A4A6"/>
<path d="M24.1923 26.8521C23.598 26.9511 23.0037 26.8521 22.7065 26.2578C21.9142 27.7435 22.6075 29.4273 21.9142 30.814L22.0132 30.9131C22.5084 30.814 22.6075 31.5073 23.2018 31.5073C23.697 30.4178 23.3999 29.1302 23.3008 28.0407C23.2018 27.3473 23.4989 27.0502 24.1923 26.8521Z" fill="#062B4E"/>
<path d="M28.5497 16.9473C28.1535 15.6597 27.2621 15.7587 26.3706 16.1549C25.083 16.6502 24.3897 17.6406 23.7954 18.8292C23.1021 20.2159 22.2106 21.2064 20.6259 21.4045C19.4373 21.6026 18.744 22.0978 18.3478 23.1873C18.1497 23.8806 17.7535 24.673 17.1592 25.1683C16.9611 25.7626 14.0887 32.2997 15.8716 30.6159C16.664 32.0026 19.3383 32.993 20.4278 34.1816C20.824 34.1816 24.5878 31.7054 24.984 31.6064C25.6773 30.1206 24.0925 26.8521 22.5078 26.2578C22.8049 25.4654 22.8049 24.2768 24.2906 24.9702C27.5592 25.7626 28.3516 22.2959 28.3516 20.414C28.3516 20.1168 28.3516 19.8197 28.3516 19.4235C28.5497 18.7302 28.5497 17.8387 28.5497 16.9473Z" fill="#F8A4A6"/>
<path d="M31.72 21.6026L31.8191 21.7017C31.9181 21.6026 31.8191 21.6026 31.72 21.6026C31.72 21.6026 31.8191 21.5036 31.72 21.6026Z" fill="#617C99"/>
<path d="M7.35412 11.6973C8.93888 11.3011 12.5046 10.7068 14.6836 10.1125C14.9808 9.51825 15.1789 9.02301 15.476 8.92397C15.6741 8.82492 15.6741 9.4192 15.5751 10.0135C16.2684 9.6173 18.0513 8.92397 18.1503 9.22111C18.3484 9.51825 17.2589 10.0135 16.4665 10.4097C17.1598 10.1125 17.2589 10.1125 17.9522 9.91444C18.1503 9.81539 18.7446 9.71635 18.8436 9.91444C18.8436 10.2116 17.556 10.9049 16.9617 11.2021C17.556 11.004 17.3579 11.103 17.9522 10.8059C18.2494 10.7068 18.5465 10.5087 18.8436 10.6078C18.9427 10.6078 19.0417 10.6078 19.0417 10.7068C19.0417 10.8059 19.0417 10.9049 18.7446 11.103C18.3484 11.4002 17.8532 11.6973 16.8627 12.0935C17.6551 11.8954 17.8532 11.6973 18.1503 11.6973C18.2494 11.6973 18.2494 11.6973 18.3484 11.6973C18.6456 11.5983 18.6456 11.6973 18.6456 11.7963C18.6456 11.8954 18.5465 11.9944 18.4475 12.0935C17.8532 12.5887 16.9617 13.084 16.0703 13.3811C14.2875 14.0744 7.9484 16.0554 7.9484 16.0554" fill="#F8A4A6"/>
<path d="M38.3564 30.319C38.3564 30.319 37.2668 23.7819 37.0687 21.9C36.9697 20.9095 36.9697 19.919 37.1678 19.1266C37.1678 19.0276 37.2668 18.9285 37.3659 18.8295C37.4649 18.7305 37.564 18.7305 37.564 18.7305C37.663 18.7305 37.663 18.8295 37.663 18.9285C37.7621 19.2257 37.7621 19.4238 37.8611 20.3152C37.7621 19.3247 37.8611 18.7305 37.9602 18.2352C37.9602 17.9381 38.0592 17.839 38.1583 17.839C38.2573 17.839 38.3564 17.9381 38.3564 17.9381C38.5544 18.2352 38.5544 18.5324 38.5544 18.8295C38.5544 19.4238 38.6535 19.2257 38.6535 19.919C38.6535 19.3247 38.6535 17.839 38.9506 17.6409C39.2478 17.5419 39.3468 18.1362 39.3468 18.3343C39.4459 19.0276 39.4459 19.1266 39.5449 19.919C39.5449 18.9285 39.5449 17.839 39.8421 17.839C40.1392 17.839 40.3373 19.7209 40.2383 20.5133C40.7335 20.2162 41.3278 19.919 41.3278 20.2162C41.3278 20.4143 41.0306 20.9095 40.6345 21.4047C41.1297 23.5838 42.1202 27.0505 42.5164 28.6352" fill="#F8A4A6"/>
<path d="M26.8657 22.098H28.1533L27.9552 19.2256H27.46L26.8657 22.098Z" fill="#413957"/>
<path d="M37.0673 25.1675C37.0673 25.1675 38.454 30.0208 36.374 30.417C33.6997 30.9123 29.3416 25.0685 22.6064 26.257C22.6064 26.257 23.3987 28.9313 21.814 30.8132C21.814 30.8132 18.1492 31.3085 17.2578 25.0685L16.0692 24.6723C11.8102 22.6913 7.35301 19.3237 9.43301 17.3428C11.414 15.4608 14.6825 15.0647 14.6825 15.0647C14.6825 15.0647 14.1873 10.1123 11.3149 9.41895C4.28254 11.0037 -0.174601 13.4799 0.716828 17.2437C1.60826 21.0075 7.35302 29.2285 9.13588 33.7847C10.9187 38.3408 11.9092 46.958 11.3149 51.7123C11.3149 51.7123 12.0083 53.3961 13.593 53.7923C13.593 53.7923 14.8806 61.617 19.4368 66.6685C23.993 71.7199 17.654 73.2056 17.654 73.2056L12.3054 74.2951C12.3054 74.2951 11.513 79.0494 14.4844 80.8323C14.4844 80.8323 33.2044 80.7332 30.6292 70.5313C30.6292 70.5313 29.0444 65.777 27.9549 63.1027C27.9549 63.1027 36.0768 66.6685 36.473 70.1351C36.8692 73.6018 33.4025 82.8132 33.4025 82.8132C33.4025 82.8132 33.6997 85.5866 40.0387 85.5866C40.0387 85.5866 49.4483 68.7485 44.5949 63.0037C42.1187 60.1313 36.2749 55.8723 32.214 50.2266L34.1949 48.3447C32.0159 44.977 29.9359 37.8456 32.313 36.8551C34.6902 35.8647 43.2083 38.9351 43.8025 31.5066C43.9016 29.7237 42.614 23.9789 42.614 23.9789C42.614 23.9789 39.4444 22.8894 37.0673 25.1675Z" fill="#8FB8E5"/>
<path d="M25.875 48.6426L27.5588 53.7931C27.5588 53.7931 30.2331 53.1988 34.2941 48.6426" stroke="white" stroke-width="0.25" stroke-miterlimit="10"/>
<path d="M11.4143 52.0098C11.4143 52.0098 12.5038 56.9622 26.4696 53.9908C26.6677 49.2365 21.9134 32.2003 21.9134 32.2003C20.0315 33.8841 19.6353 35.3698 19.6353 35.3698C19.6353 35.3698 13.4943 32.3984 15.1781 24.4746" stroke="white" stroke-width="0.25" stroke-miterlimit="10"/>
<path d="M25.2815 26.1592C25.2815 26.1592 26.8663 28.4373 26.0739 33.2906C24.5882 31.8049 23.1025 31.6068 23.1025 31.6068" stroke="white" stroke-width="0.25" stroke-miterlimit="10"/>
<path d="M11.8109 15.0658C11.8109 15.0658 12.009 11.5991 8.83948 10.3115" stroke="white" stroke-width="0.25" stroke-miterlimit="10"/>
<path d="M42.2179 26.6541C42.2179 26.6541 39.5436 26.1588 37.4636 28.2388" stroke="white" stroke-width="0.25" stroke-miterlimit="10"/>
<path d="M17.358 80.9319C17.358 80.9319 14.4857 79.3472 14.8819 74.0977" stroke="white" stroke-width="0.25" stroke-miterlimit="10"/>
<path d="M41.624 82.913C41.624 82.913 37.2659 83.8044 34.2945 80.833" stroke="white" stroke-width="0.25" stroke-miterlimit="10"/>
</g>
<defs>
<clipPath id="clip0">
<rect width="97.3143" height="104" fill="white"/>
</clipPath>
</defs>
</svg>
