<svg width="84" height="104" viewBox="0 0 84 104" fill="none" xmlns="http://www.w3.org/2000/svg">
<path d="M77.5219 87.2644L57.6019 90.7311C56.1619 90.9702 54.7219 90.0138 54.4819 88.5793L52.3219 76.1472C52.0819 74.7127 53.0419 73.2782 54.4819 73.0391L74.4019 69.5724C75.8419 69.3334 77.2819 70.2897 77.5219 71.7242L79.6819 84.1564C80.0419 85.5908 79.0819 87.0253 77.5219 87.2644Z" fill="#407DC9"/>
<path d="M60.5987 71.6046L60.3587 70.0506C60.1187 68.9747 60.8387 68.0184 61.9187 67.8989L65.6387 67.1816C66.7187 66.9425 67.6787 67.6598 67.7987 68.7357L68.0387 70.2897" stroke="#8C4699" stroke-width="2" stroke-miterlimit="10"/>
<path d="M49.079 23.3103L19.199 31.4391C14.999 32.5149 10.799 30.2437 9.599 26.1793L7.679 19.6046C6.479 15.5402 8.99899 11.3563 13.079 10.2805L17.759 9.08506L42.839 2.27127C47.039 1.1954 51.239 3.46667 52.439 7.53104L54.359 14.1057C55.679 18.0506 53.279 22.2345 49.079 23.3103Z" fill="#EBEDF5"/>
<path d="M32.6413 42.5563C30.2413 39.2092 30.6013 34.6666 29.5213 30.7218C28.9213 28.5701 27.9613 26.5379 27.2413 24.5057C26.5213 22.4735 26.0413 20.2023 26.5213 18.0506C27.0013 15.6598 28.8013 13.508 31.0813 12.4322C33.3613 11.3563 36.2413 11.4758 38.5213 12.5517C40.8013 13.7471 42.4813 15.8988 44.5213 17.4529C47.2813 19.485 51.0013 20.2023 53.7613 22.2345C57.6013 24.8644 59.7613 29.646 59.4013 34.308C58.9213 38.8506 56.0413 43.154 51.9613 45.4253C47.7613 47.6965 42.6013 47.9356 38.1613 46.3816C36.0013 45.5448 33.9613 44.3494 32.6413 42.5563Z" fill="#062B4E"/>
<path d="M25.7998 27.0161L24.9598 24.3862L20.0398 21.8759L24.5998 15.1816C24.8398 15.3012 25.0798 15.3012 25.3198 15.1816C25.5598 15.1816 25.7998 15.0621 25.9198 14.9425C26.3998 14.7035 26.7598 14.5839 27.2398 14.3448C27.3598 14.3448 27.4798 14.2253 27.4798 14.2253C27.5998 14.1058 27.3598 13.9862 27.2398 13.8667C27.1198 13.8667 26.9998 13.8667 26.7598 13.8667C26.5198 13.8667 26.1598 13.8667 25.9198 13.8667C25.9198 13.8667 28.1998 12.4322 27.9598 11.8345C27.7198 11.2368 25.6798 12.9104 25.6798 12.9104C25.6798 12.9104 27.9598 10.9977 27.7198 10.7586C27.3598 10.5195 25.3198 12.0736 25.3198 12.0736C25.3198 12.0736 27.1198 10.2805 26.7598 10.0414C26.3998 9.80231 24.5998 11.4759 24.5998 11.4759C24.5998 11.4759 25.6798 9.92185 25.4398 9.80231C25.1998 9.68277 22.9198 11.2368 23.0398 13.0299C23.0398 13.0299 11.8798 18.1701 12.5998 22.8322C13.3198 27.6138 19.5598 30.9609 21.8398 31.7977L25.7998 27.0161Z" fill="#FFA6A6"/>
<path d="M56.9998 36.4598L58.1998 37.0575C58.1998 37.0575 63.3598 45.0667 60.7198 59.7701C60.7198 59.7701 61.9198 62.2805 61.4398 62.4C60.9598 62.5195 60.1198 60.846 60.1198 60.846C60.1198 60.846 60.5998 63.8345 60.2398 64.0736C59.8798 64.1931 59.5198 61.3241 59.5198 61.3241C59.5198 61.3241 59.2798 64.7908 58.7998 64.5517C58.3198 64.4322 58.3198 61.4437 58.3198 61.4437C58.3198 61.4437 58.0798 64.9103 57.4798 64.5517C56.8798 64.3126 57.2398 61.2046 57.2398 61.2046C57.2398 61.2046 56.3998 62.4 55.9198 62.4C55.4398 62.4 56.7598 59.7701 56.7598 59.7701C56.7598 59.7701 56.3998 58.8138 57.4798 58.5747L51.8398 38.492L56.9998 36.4598Z" fill="#FFA6A6"/>
<path d="M58.202 37.0575C58.202 37.0575 57.362 41.0023 52.922 41.4805L52.082 39.3287L58.202 37.0575Z" fill="#FF6767"/>
<path d="M24.8408 24.5057C24.8408 24.5057 20.6408 26.0598 19.8008 30.6023L21.4808 31.3195L24.8408 24.5057Z" fill="#FF6767"/>
<path d="M40.32 29.4069L41.76 27.1357C43.08 26.2989 44.52 25.5816 46.44 25.4621C46.44 25.4621 53.52 32.8736 53.4 60.1288L27.12 58.3357C27.12 58.3357 31.68 43.7517 30.72 36.5793L21 31.7977C21.48 29.0483 22.68 26.5379 24.96 24.6253L40.32 29.4069Z" fill="#9FCDFF"/>
<path d="M45.1211 26.5379L46.4411 25.3425C46.4411 25.3425 51.1211 24.3862 53.7611 28.331C56.4011 32.2759 58.5611 36.5793 58.5611 36.5793C58.5611 36.5793 57.1211 40.8828 51.2411 40.7632L45.1211 26.5379Z" fill="#9FCDFF"/>
<path d="M41.1595 34.069C37.9195 34.308 36.4795 31.3195 38.2795 29.0483L37.0795 27.4943L35.5195 25.4621L38.3995 22.7126L40.1995 24.9839L41.8795 27.1356C41.8795 27.1356 43.1995 26.2989 44.7595 28.4506C45.8395 30.1241 44.6395 33.7103 41.1595 34.069Z" fill="#FFA6A6"/>
<path d="M40.0784 24.9839C39.8384 25.5816 39.5984 26.2989 39.2384 27.0161C39.2384 27.0161 38.3984 27.4943 37.0784 27.3747L35.3984 25.3425L38.3984 22.7126L40.0784 24.9839Z" fill="#FF6767"/>
<path d="M16.202 96.9471C16.082 97.0667 14.762 103.283 14.042 102.924C13.202 102.566 12.482 94.0782 12.482 94.0782C12.482 94.0782 0.48201 67.5402 1.68201 62.6391C3.00201 57.7379 12.722 57.1402 12.722 57.1402L15.602 60.3678L16.322 68.9747L15.962 69.5724L15.002 71.246L12.002 70.1701C14.522 71.9632 15.482 77.8207 15.242 80.4506C15.122 81.1678 15.122 81.885 15.122 82.7218C15.122 82.8414 15.122 82.9609 15.122 83.0805C15.242 85.2322 15.602 87.3839 15.842 88.5793C16.202 90.3724 17.162 90.0138 18.002 92.046C18.962 94.1977 16.322 96.8276 16.202 96.9471Z" fill="#FFA6A6"/>
<path d="M15.1192 80.4506C14.9992 81.1678 14.9992 81.8851 14.9992 82.7219C14.6392 74.8322 11.5192 70.6483 11.5192 70.6483L10.1992 68.4966L11.9992 69.3334H15.7192C15.7192 69.3334 15.7192 69.3334 15.8392 69.4529L14.8792 71.1265L11.9992 70.1701C14.5192 72.0828 15.4792 77.9403 15.1192 80.4506Z" fill="#FF6767"/>
<path d="M39.1202 61.4437L33.8402 69.5724L25.4402 70.2897L15.0002 71.246C11.2802 66.4644 12.8402 57.0207 12.8402 57.0207L27.0002 56.5425H27.6002C28.9202 57.8575 31.2002 57.7379 31.2002 57.7379L37.9202 57.2598L38.2802 58.3356L39.1202 61.4437Z" fill="#BF92C8"/>
<path d="M21 70.7678L23.4 68.2575L22.44 66.5839L35.88 58.8138L25.44 70.4092L21 70.7678Z" fill="#A374AF"/>
<path d="M28.8001 18.0506C28.8001 18.0506 29.5201 16.6161 31.4401 17.2138C33.3601 17.8115 36.0001 18.1701 37.4401 17.5724C37.4401 17.5724 41.1601 21.5172 38.4001 26.1793C38.4001 26.1793 34.8001 28.2115 30.1201 23.3103C30.1201 23.3103 30.2401 22.354 29.6401 21.3977C29.0401 20.5609 28.4401 19.0069 28.8001 18.0506Z" fill="#FFA6A6"/>
<path d="M49.68 40.1655C49.08 41.6 47.52 42.5563 45.96 42.6759C44.4 42.6759 42.72 41.8391 42 40.5242C43.32 40.8828 44.52 41.2414 45.96 41.2414C47.28 41.2414 48.72 41.0023 49.68 40.1655Z" fill="#7297B2"/>
<path d="M36.3592 43.0345C37.4392 42.6759 38.1592 41.8391 38.3992 40.6437C36.4792 42.3172 33.4792 42.5563 31.1992 41.2414C31.9192 41.7195 32.7592 42.3172 33.5992 42.6759C34.4392 43.154 35.5192 43.3931 36.3592 43.0345Z" fill="#7297B2"/>
<path d="M48.6016 31.9172C48.6016 31.9172 51.2416 35.8621 51.9616 40.8827L52.6816 40.7632C52.6816 40.7632 52.3216 35.9816 48.6016 31.9172Z" fill="#7297B2"/>
<path d="M54.9601 102.685C54.0001 102.805 48.0001 96.7081 48.0001 96.7081C48.0001 96.7081 21.4801 83.5586 19.3201 78.8966C17.1601 74.2345 24.2401 68.1379 24.2401 68.1379L28.6801 68.4966L34.6801 74.7127L35.0401 76.2667L35.2801 77.223L32.2801 78.2989C35.5201 78.1793 39.9601 82.1241 41.4001 84.2759C41.7601 84.754 42.1201 85.2322 42.4801 85.7103C42.8401 86.069 43.2001 86.4276 43.5601 86.7862H43.6801C45.0001 88.1012 46.4401 89.4161 47.4001 90.1333C48.8401 91.2092 49.3201 90.492 51.3601 91.4483C53.4001 92.4046 52.9201 96.1103 52.9201 96.2299C52.8001 96.8276 55.8001 102.446 54.9601 102.685Z" fill="#FFA6A6"/>
<path d="M42.4781 85.9494C34.9181 77.9402 28.5581 78.4184 28.0781 78.4184L31.1981 77.9402L33.7181 76.0276C33.7181 76.0276 34.3181 76.1471 34.9181 76.3862L35.1581 77.3425L32.1581 78.4184C35.2781 78.2989 39.8381 82.2437 41.2781 84.3954C41.6381 84.9931 41.9981 85.4713 42.4781 85.9494Z" fill="#FF6767"/>
<path d="M35.1606 77.4621C30.4806 76.9839 27.2406 73.1586 25.3206 70.4092C24.2406 68.7356 23.6406 67.5402 23.6406 67.5402L36.1206 58.5747L37.8006 57.3793C49.3206 56.3035 53.1606 60.1287 53.1606 60.1287C53.4006 60.4874 53.4006 60.9655 53.4006 61.4437C54.1206 68.9747 35.1606 77.4621 35.1606 77.4621Z" fill="#BF92C8"/>
<path d="M53.6409 61.3242C50.7609 59.4115 46.9209 58.5747 43.4409 58.3356C41.7609 58.3356 39.9609 58.3356 38.2809 58.3356C37.5609 58.3356 36.8409 58.3356 36.2409 58.4552C34.4409 58.5747 32.5209 58.6943 30.7209 58.6943C29.8809 58.6943 28.9209 58.6943 28.2009 58.2161C27.6009 57.8575 27.0009 57.1402 27.1209 56.5425H27.6009C28.9209 57.8575 31.2009 57.7379 31.2009 57.7379L37.9209 57.2598C49.4409 56.1839 53.2809 60.0092 53.2809 60.0092C53.5209 60.4874 53.5209 60.846 53.6409 61.3242Z" fill="#A374AF"/>
<path d="M77.4008 86.1885L57.4808 89.6552C56.0408 89.8943 54.6008 88.938 54.3608 87.5035L52.2008 75.0713C51.9608 73.6368 52.9208 72.2023 54.3608 71.9632L74.2808 68.4966C75.7208 68.2575 77.1608 69.2138 77.4008 70.6483L79.5608 83.0805C79.8008 84.515 78.8408 85.9494 77.4008 86.1885Z" fill="#9FCDFF"/>
<path d="M77.5947 86.6923L75.1133 87.1296L75.4059 88.7775L77.8874 88.3402L77.5947 86.6923Z" fill="#407DC9"/>
<path d="M59.8369 89.8174L57.3555 90.2547L57.6481 91.9026L60.1296 91.4653L59.8369 89.8174Z" fill="#407DC9"/>
</svg>
