<svg width="98" height="104" viewBox="0 0 98 104" fill="none" xmlns="http://www.w3.org/2000/svg">
<path d="M39.1102 35.7689C39.0849 35.5669 38.984 35.4155 38.9587 35.264C39.1102 34.9106 39.2869 34.4563 39.2112 34.3553C39.1859 34.2038 38.9082 34.4058 38.7315 34.6582C38.6558 34.2543 38.2772 33.3456 38.1257 33.3961C38.0247 33.4213 38.1257 33.9766 38.2772 34.4815C38.151 34.1281 38.1005 34.0776 37.9743 33.7495C37.949 33.6485 37.7471 33.3708 37.6461 33.4465C37.4946 33.5223 37.6966 34.2796 37.7976 34.633C37.6966 34.33 37.6966 34.431 37.5956 34.0776C37.5199 33.9262 37.4694 33.7242 37.3684 33.6485C37.3179 33.598 37.2927 33.5475 37.2675 33.6232C37.217 33.6737 37.1917 33.7495 37.1917 33.8504C37.2422 34.1029 37.2927 34.4058 37.4442 34.9106C37.2675 34.5067 37.2422 34.4058 37.116 34.2796C37.116 34.2291 37.0908 34.1786 37.0403 34.1786C36.9898 34.1786 36.9898 34.1786 36.9393 34.2543C36.9393 34.2543 36.9141 34.3553 36.9141 34.4058C36.9898 34.7592 37.0655 35.2388 37.1917 35.6427C37.217 35.8446 37.2927 36.2485 37.4442 36.7786" fill="#FF948F"/>
<path d="M37.4688 36.6776C37.4688 36.6776 38.8319 40.7922 39.7658 41.9533C40.6998 43.1145 44.0066 44.932 44.1833 46.4213C44.36 47.9106 43.9814 57.0737 42.9464 59.0427C41.9367 60.9864 39.059 64.0912 38.9581 65.4543C38.8319 66.8174 39.6396 67.7514 40.2202 67.8524C40.8008 67.9786 41.028 66.4893 41.7095 65.5553C42.3911 64.6466 44.3348 63.4349 45.7231 62.1475C47.0862 60.8601 48.2474 59.0174 49.1561 59.0174C50.0649 59.0174 52.0338 60.6834 51.9076 62.1475C51.7814 63.6116 50.1911 65.3281 50.4183 66.2368C50.6454 67.1456 51.3522 68.9883 51.9076 69.3417C52.4882 69.6951 52.8163 69.2155 52.7658 68.2815C52.7153 67.3475 52.8668 66.2368 52.7658 65.7067C52.6901 65.2524 55.1134 63.7378 55.3658 62.4504C55.6183 61.1631 55.6183 57.5533 54.861 52.5553C54.1037 47.5572 53.7503 44.2252 53.927 43.1902C54.1037 42.1553 56.8552 40.4388 57.461 39.0757C58.0668 37.7126 58.0163 36.0465 52.993 35.466C47.9697 34.8854 49.3581 38.4698 49.3581 38.4698L47.2124 39.1514L45.3697 39.9592C45.3697 39.9592 43.9561 40.6912 42.492 39.9592C41.028 39.2271 39.059 35.4407 39.059 35.4407C38.6552 35.9456 38.1503 36.3747 37.4688 36.6776Z" fill="#FFDC80"/>
<path d="M91.5639 22.1125L67.1795 25.2931C63.797 25.7222 60.6416 22.8445 60.1115 18.9319L59.2785 12.4698C58.7484 8.55713 61.0707 4.94742 64.4533 4.5183L84.294 1.86781L88.8377 1.23674C92.2203 0.807618 95.3756 3.68529 95.9057 7.59791L96.7387 14.06C97.2688 18.0736 94.9465 21.6833 91.5639 22.1125Z" fill="#EBEDF5"/>
<path d="M32.3696 21.9861L8.18706 18.0735C4.80453 17.5434 2.4822 14.3628 3.13851 10.9803L3.97152 5.35116C4.50162 1.96863 7.65696 -0.378939 11.0395 0.252129L30.8803 3.43271L35.323 4.16475C38.7055 4.69485 41.0278 7.87543 40.3968 11.258L39.5638 16.7609C39.0084 20.1939 35.7269 22.5162 32.3696 21.9861Z" fill="#EBEDF5"/>
<path d="M86.2869 25.8232C88.8111 24.1319 92.0927 21.9106 90.1995 17.2407C88.2053 12.5708 83.5607 13.7319 82.1723 10.7785C80.784 7.82515 78.0577 5.47758 71.8228 6.73971C63.3917 8.43098 68.4403 15.1203 60.9432 15.0193C53.4461 14.9184 50.4927 22.1125 57.9898 27.7417C65.4869 33.3455 75.4073 33.0174 86.2869 25.8232Z" fill="#062B4E"/>
<path d="M44.2851 19.6639C41.9627 17.0134 38.1763 15.4231 37.1161 15.095C36.3841 14.6658 35.4249 14.3629 34.6928 14.1357C34.5918 14.1357 34.3647 14.1357 34.3647 14.1357C34.2637 14.1357 34.2637 14.2367 34.2637 14.3377C34.2637 14.4387 34.2637 14.4387 34.3647 14.5396C34.6928 14.7416 34.8947 14.8678 35.5258 15.3979C34.5666 14.8678 33.9355 14.6658 33.5316 14.5396C33.3297 14.5396 33.1025 14.5396 33.0015 14.5396C32.9006 14.6406 33.0015 14.7416 33.0015 14.8678C33.2035 15.1959 33.5316 15.2969 33.8346 15.4988C34.4656 15.827 34.2637 15.7008 34.7938 16.1299C34.1627 15.8018 32.6734 15.1707 32.4714 15.4988C32.3705 15.3979 33.0015 15.928 33.1025 15.928C33.7336 16.2561 33.8346 16.4581 34.4656 16.7862C33.5064 16.3571 32.4714 15.928 32.3452 16.1552C32.2443 16.4833 33.9355 17.4173 34.7685 17.7455C34.2384 18.0736 33.7083 18.4775 34.0365 18.6037C34.2384 18.7047 35.1977 18.5027 35.9297 18.4018C38.353 19.462 41.4074 21.4814 40.8773 23.3746C40.1452 26.126 31.487 24.5357 31.487 24.5357C31.487 24.5357 24.8481 29.7357 32.1181 30.4678C46.6074 32.0581 48.2986 24.4348 44.2851 19.6639Z" fill="#FF948F"/>
<path d="M74.3734 26.2271C74.3734 26.0252 74.0452 21.7844 74.0452 21.7844C72.5559 21.8854 70.9908 20.9262 70.2336 15.5242C69.5015 10.1223 74.0452 9.69316 75.4083 10.0213C76.7714 10.3495 78.7909 12.5708 78.5637 14.8932C79.8258 13.5048 81.3151 14.7922 80.4569 15.9534C79.5986 17.1145 78.7656 17.7456 78.7656 18.4019C78.7656 19.033 78.6646 21.1534 79.9268 24.5611C81.1889 27.9436 82.1481 28.6 82.1481 28.6L78.0336 32.2097L74.4491 30.8213L74.3734 26.2271Z" fill="#F8A4A6"/>
<path d="M72.5825 18.2758H71.3203L71.6485 15.4233H72.1786L72.5825 18.2758Z" fill="#413957"/>
<path d="M16.9475 97.5882C16.9475 97.5882 16.9475 97.4873 16.9475 97.5882C16.8465 95.6698 15.2562 94.2057 13.363 94.3067C11.4698 94.4077 10.3086 95.9979 10.4096 97.9164C10.4096 98.0174 10.7378 98.1183 10.7378 98.3455L10.5358 100.567L8.54164 102.359C8.44067 102.359 8.3397 102.258 8.21349 102.258C8.01154 102.258 7.78436 102.46 7.88533 102.687C7.68339 102.586 7.15329 102.258 6.92611 102.586C6.82514 102.788 7.02708 103.217 7.25426 103.445C7.05232 103.445 6.82514 103.445 6.72417 103.546C6.62319 103.646 6.62319 103.975 6.72417 103.975C6.72417 103.975 6.82514 103.975 6.92611 103.975C7.55718 103.874 8.41543 103.646 9.0465 103.546L17.0737 101.955L16.9475 97.5882Z" fill="#FF948F"/>
<path d="M25.8084 102.561C25.8084 102.359 25.6064 102.233 25.4802 102.132C25.6822 102.132 26.1113 101.93 26.2123 101.602C26.2123 101.173 25.5812 101.072 25.3792 101.072C25.5812 100.971 25.4802 100.643 25.3792 100.542C25.2783 100.441 25.1773 100.441 24.9501 100.441L24.4453 97.6893L25.6064 95.7709C25.7074 95.6699 25.9346 94.7107 26.0356 94.6097C27.2977 93.2213 27.3987 92.2874 26.0356 91C24.6725 89.7378 22.4511 89.8388 21.189 91.3281L18.4375 94.5087L24.3443 101.501C24.5462 101.703 24.7734 102.031 24.9754 102.233L25.1773 102.435C25.1773 102.435 25.1773 102.435 25.2783 102.536L25.3792 102.637C25.7074 102.99 25.8084 102.788 25.8084 102.561Z" fill="#FF948F"/>
<path d="M12.3017 9.49119C11.2415 9.49119 10.4085 10.5514 10.1813 11.6116C9.97938 12.8737 10.8124 14.464 11.3425 15.6504C11.6706 16.5087 11.8726 16.9125 13.0337 18.5028C12.6046 19.0329 11.6706 19.765 11.8726 20.0931C12.0745 20.4213 12.8318 19.8912 13.2357 19.563C12.8066 20.5223 13.1347 21.4815 13.8668 21.3553C14.4978 21.3553 15.76 20.1941 16.2901 19.765C17.4512 18.7048 18.1833 17.3164 19.2435 16.3825C19.8745 15.7514 20.9347 15.3223 21.4648 14.6912C22.424 13.9592 23.5852 13.1009 24.1153 11.9397C24.2163 11.6116 24.3172 11.3087 24.3172 10.9805C24.2163 10.6524 23.8881 10.3494 23.5852 10.5514C24.0143 10.2232 24.3172 9.92032 24.5444 9.39022C24.7464 8.86012 24.6454 8.33003 24.4435 8.00187C24.2415 7.67371 23.3833 7.47177 22.9541 7.79993C23.1561 7.06789 23.2823 6.20964 22.424 5.78051C22.2221 5.67954 21.9949 5.67954 21.793 5.67954C21.0609 5.67954 20.5308 6.20964 20.0007 6.63876C19.8998 6.10867 19.8998 5.57857 19.6726 5.04847C19.4706 4.51837 19.0415 4.08925 18.6124 3.88731C17.7794 3.55915 16.8202 4.08925 16.0881 4.61934C15.2551 5.35138 14.5988 6.20964 14.0939 7.06789C13.993 6.63876 13.3619 6.53779 13.0337 6.86595C12.7056 7.06789 12.5037 7.49702 12.4027 7.92614C12.4027 8.33002 12.3017 8.96109 12.3017 9.49119Z" fill="#062B4E"/>
<path d="M16.644 77.5458C16.644 77.5458 16.2148 56.771 16.2148 56.5438C16.2148 54.3225 14.4226 52.505 12.1003 52.6312C9.87892 52.6312 8.08669 54.5496 8.18766 56.771C8.18766 56.872 8.81873 77.3438 8.81873 77.3438C8.81873 77.4448 8.81873 77.672 8.81873 77.7729C8.81873 79.8933 10.611 81.5846 12.7313 81.5846C14.8517 81.5846 16.4168 79.8933 16.543 77.7729V77.571H16.644V77.5458Z" fill="#8FB8E5"/>
<path d="M12.6296 73.6328C10.5092 73.6328 8.81792 75.5513 8.94413 77.6716L10.1053 99.6076C14.0179 100.037 17.1733 99.4056 17.1733 99.4056L16.6432 77.4697C16.5169 75.2231 14.7247 73.6328 12.6296 73.6328Z" fill="#8FB8E5"/>
<path d="M21.9195 51.3687H17.3758H17.2749H12.7312H8.1875V56.2405C8.1875 57.8308 9.14672 59.3202 10.6108 59.8503L15.9875 61.8697L20.6322 61.1376L24.0147 59.8755C25.504 59.3454 26.438 57.8561 26.438 56.2658V51.293H21.8943V51.3687H21.9195Z" fill="#8FB8E5"/>
<path d="M29.2914 76.9146C29.2914 76.9146 19.1691 58.6894 19.0429 58.6894C17.9827 56.7709 18.6138 54.3476 20.5322 53.1864C22.4254 52.1263 24.8487 52.7573 25.9089 54.6758C25.9089 54.7767 35.6274 72.8 35.6274 72.8C35.7283 72.901 35.7283 73.002 35.8293 73.1282C36.8895 75.0467 36.2584 77.369 34.34 78.4292C32.7749 79.3632 30.4526 78.8331 29.2914 76.9146Z" fill="#8FB8E5"/>
<path d="M34.1614 71.7142C36.0546 72.6735 36.8119 74.9958 35.9536 76.9142L25.7051 96.3259C22.0196 95.0637 19.3691 93.1453 19.3691 93.1453L28.9614 73.4307C29.9206 71.6133 32.2429 70.8812 34.1614 71.7142Z" fill="#8FB8E5"/>
<path d="M21.6927 10.5515C21.0616 10.4506 17.149 9.81948 14.5237 11.8137C14.5237 12.7729 14.9529 13.8331 14.9529 14.7923C14.9529 14.8933 14.9529 15.1205 14.7509 15.1205C14.65 15.1205 14.65 15.0195 14.549 15.0195C14.448 14.9185 14.347 14.6913 14.2208 14.5904C14.4228 15.1205 14.7509 16.0797 14.3218 16.1806C13.9936 16.2816 13.3626 15.3224 13.2616 14.6913C13.1606 14.6913 13.0597 14.6913 12.9334 14.6913C12.1004 14.6913 11.3432 15.3224 11.2422 16.0797C11.2422 16.9379 11.8733 17.67 12.6053 17.7709C12.8072 17.7709 13.0344 17.7709 13.2364 17.67V22.3399C13.2364 22.4408 13.2364 22.668 13.2364 22.87C13.2364 24.7884 14.8267 26.3787 16.8208 26.3787C18.815 26.3787 20.3043 24.7884 20.3043 22.769C20.3043 22.668 20.3043 22.4408 20.3043 22.3399V20.4214C22.0966 19.7904 22.4247 17.8719 22.0966 16.1806C22.1218 14.2622 21.6927 10.5515 21.6927 10.5515Z" fill="#FF948F"/>
<path d="M12.7312 16.2814C12.8322 16.0794 13.0594 15.8522 13.3623 15.7513C13.3623 15.7513 13.3623 15.7513 13.1604 15.6503C12.9584 15.6503 12.5293 15.6503 12.5293 15.6503C12.8575 15.5493 13.1604 15.5493 13.3623 15.7513C13.6905 15.9532 13.7914 16.2814 13.6905 16.6095C13.6905 16.6095 13.5895 16.0794 13.3623 15.9785L12.7312 16.2814Z" fill="#A8425F"/>
<path d="M20.5305 20.1943C20.5305 20.1943 19.6975 20.5225 18.4102 20.3963L20.5305 22.2138V20.1943Z" fill="#413957"/>
<path d="M17.4766 16.4839C17.5775 17.115 18.2086 17.645 19.2688 17.115C19.2688 17.115 18.7387 17.2159 18.2086 17.115C17.8047 16.913 17.4766 16.4839 17.4766 16.4839Z" fill="#A8425F"/>
<path d="M28.5587 24.107C25.6053 24.006 23.4849 23.2487 20.7587 22.9458C20.7587 22.9458 19.6985 24.8642 17.1742 24.8642C14.7509 24.8642 13.5897 22.9458 13.5897 22.9458C10.8383 23.274 7.15286 24.107 4.9315 25.9244C3.8713 26.5555 3.24023 27.6157 3.24023 28.9031C3.24023 29.4332 3.34121 29.8623 3.56839 30.2914L7.78392 36.7536L8.31402 52.0254C8.31402 52.0254 9.80334 53.4138 16.9723 53.4138C24.1412 53.4138 26.2616 52.2526 26.2616 52.2526V36.0973C26.2364 36.0973 29.5179 24.7633 28.5587 24.107Z" fill="#8FB8E5"/>
<path d="M32.9003 23.4759C29.0887 23.804 26.6654 22.3147 20.6576 23.4759C18.6635 23.905 19.5974 27.0856 20.5567 28.8778C20.5567 28.9788 20.6576 28.9788 20.6576 29.0797C20.8596 29.6098 21.2887 29.938 21.8188 30.3419C21.9198 30.4428 22.1469 30.5438 22.3489 30.5438C24.5702 31.503 28.2557 31.503 31.9411 31.0739C31.9411 30.9982 33.2033 27.9438 32.9003 23.4759Z" fill="#8FB8E5"/>
<path d="M30.3504 31.1239C30.9815 28.6754 31.1834 26.1511 31.1834 23.6016C31.1834 23.5006 30.9815 23.5006 30.9815 23.6016C30.9815 26.1511 30.7795 28.5744 30.1484 31.023C30.1484 31.2249 30.3504 31.3259 30.3504 31.1239Z" fill="white"/>
<path d="M12.0996 23.3747C12.9326 25.697 15.5831 26.7572 17.9054 26.4543C18.0064 26.4543 18.0064 26.2524 17.9054 26.2524C15.6841 26.5805 13.1598 25.5203 12.3016 23.4C12.3016 23.1728 12.0996 23.2737 12.0996 23.3747Z" fill="white"/>
<path d="M19.6985 25.8233C20.8597 25.2932 21.6927 24.435 22.1218 23.2738C22.1218 23.1728 22.0209 23.0719 21.9199 23.2738C21.4908 24.334 20.7587 25.1923 19.5976 25.5962C19.4966 25.6971 19.4966 25.9243 19.6985 25.8233Z" fill="white"/>
<path d="M46.6055 40.6406C47.287 41.9027 48.8773 42.3066 50.1899 41.928C50.2404 41.928 50.2404 41.8018 50.1647 41.8018C48.9278 42.1552 47.388 41.7513 46.7317 40.6154C46.7064 40.4891 46.6055 40.5649 46.6055 40.6406Z" fill="white"/>
<path d="M51.1498 41.4231C51.7809 41.0192 52.1848 40.4639 52.3362 39.7571C52.3362 39.7066 52.2605 39.6561 52.21 39.7823C52.0586 40.4134 51.7051 40.9688 51.0741 41.2969C51.0236 41.3726 51.0488 41.4988 51.1498 41.4231Z" fill="white"/>
<path d="M8.41497 52.53C14.3218 53.1611 20.4557 53.1611 26.3625 52.429C26.4635 52.429 26.3625 52.2271 26.3625 52.3281C20.4557 53.0601 14.3218 53.0601 8.41497 52.429C8.28876 52.3281 8.28876 52.53 8.41497 52.53Z" fill="white"/>
<path d="M19.7992 16.1552H18.5371L18.8653 13.3027H19.3954L19.7992 16.1552Z" fill="#413957"/>
<path d="M21.9207 38.9495C22.0217 38.7476 22.1227 38.6214 22.0217 38.5204C22.0217 38.4194 21.8198 38.4194 21.6935 38.4194C21.3654 38.5204 21.0625 38.7476 20.8605 38.9495C20.3304 39.3787 20.4314 39.1515 19.9013 39.5806C20.4314 39.0505 21.5926 37.9903 21.4916 37.6622C21.3906 37.334 20.8605 37.6622 20.6586 37.8641C20.0275 38.3942 19.9266 38.3942 19.3965 38.8233C20.1285 38.1923 20.9867 37.334 20.7596 37.1321C20.5576 36.9301 18.9673 38.0913 18.3363 38.7224C18.2353 38.0913 18.1343 37.4602 17.8062 37.6622C17.6042 37.7631 17.478 38.3942 17.377 39.0505C15.4838 40.2117 8.71878 44.0233 6.82558 42.6602C4.60422 41.0699 8.71878 33.4466 8.71878 33.4466L2.48383 32.5884C2.48383 32.5884 -1.52976 43.7204 3.645 47.3301C8.39063 50.6117 18.1091 43.5185 19.6741 42.2311C20.5071 41.6 21.2644 40.8427 21.7945 40.2117C21.7945 40.2117 21.8955 40.0097 21.8955 39.8835C21.8955 39.7573 21.8955 39.6816 21.7945 39.6816C21.6935 39.6816 21.6935 39.6816 21.5926 39.6816C21.2644 39.7825 21.0625 40.0097 20.4314 40.5398C21.0625 39.8078 21.5926 39.3787 21.9207 38.9495Z" fill="#FF948F"/>
<path d="M7.75948 38.6464C8.92064 33.8755 10.41 30.493 10.41 30.493C10.7381 29.8619 10.8391 29.1046 10.7381 28.2716C10.41 26.2522 8.51676 24.8891 6.62355 25.192C6.52258 25.192 6.52258 25.192 6.42161 25.192C5.89152 25.293 5.36142 25.6211 4.93229 25.924C4.83132 26.025 4.50317 26.2522 4.4022 26.4541C2.8119 28.2464 1.87792 31.6541 1.12064 35.3648C0.9187 35.3648 3.44297 37.5862 7.75948 38.6464Z" fill="#8FB8E5"/>
<path d="M1.22066 33.8756C3.34105 35.1378 5.66338 36.198 7.98571 37.0562C8.08668 37.0562 8.08668 36.9552 7.98571 36.8543C5.66338 36.1222 3.34105 35.062 1.22066 33.6737C1.22066 33.6484 1.11969 33.7746 1.22066 33.8756Z" fill="white"/>
<path d="M9.97863 97.3863C12.301 97.5882 14.7243 97.5882 17.0466 97.1844C17.1476 97.1844 17.0466 96.9824 17.0466 96.9824C14.7243 97.4116 12.4019 97.4115 10.0796 97.1844C9.77669 97.1591 9.77669 97.3863 9.97863 97.3863Z" fill="white"/>
<path d="M20.33 90.8992C22.2232 92.1613 24.3436 93.3478 26.4388 94.0798C26.5397 94.0798 26.5397 93.9788 26.4388 93.8778C24.2174 93.1458 22.2232 91.9594 20.33 90.6973C20.33 90.6973 20.2291 90.7982 20.33 90.8992Z" fill="white"/>
<path d="M62.4336 74.693C63.4938 72.3707 67.1792 68.3318 67.4064 68.0037C68.3656 66.8425 69.2996 66.8425 70.3598 68.0037C70.7889 68.5338 75.9637 69.594 76.4685 68.9629C76.8977 69.493 73.187 72.3454 72.985 73.2037C68.6685 71.4115 66.3462 73.8348 65.488 74.592C64.453 75.4251 62.9637 75.9551 62.4336 74.693Z" fill="#F8A4A6"/>
<path d="M71.1928 81.1552C66.119 81.4834 66.5482 83.7047 65.5889 85.194C65.1598 85.8251 64.7559 88.3746 62.4336 88.0465C62.4336 87.3144 62.4336 80.095 64.2258 78.3028C66.0181 78.2018 69.4006 76.8135 70.6627 76.9144C70.2588 77.9746 70.7637 79.994 71.1928 81.1552Z" fill="#F8A4A6"/>
<path d="M77.959 48.9205C77.7571 49.0215 77.4289 49.0215 77.227 49.1225C75.6367 50.1827 74.1726 49.1225 72.5823 48.7943C71.8503 48.6933 72.7843 48.0623 72.4814 47.6331C72.1532 46.9011 72.8095 46.573 73.1124 46.1438C73.5416 46.2448 73.8445 46.1438 74.0717 45.7147C75.1319 45.3865 75.1319 45.3865 75.0309 45.0836C74.7027 44.0234 74.7027 44.0234 75.7629 44.0234C76.394 44.0234 76.9241 44.0234 77.4542 44.0234C77.8833 44.1244 78.1862 44.3516 78.6153 44.4526C79.0445 45.1846 79.4483 44.7807 79.9784 44.4526C80.3066 45.1846 80.6095 46.0429 80.8114 46.9011C80.1804 47.3302 79.5493 47.7594 79.0192 48.1632C78.9183 48.1632 78.8173 48.2642 78.6911 48.2642C78.3629 48.6176 78.161 48.8196 77.959 48.9205Z" fill="#F8A4A6"/>
<path d="M80.8115 47.1285C80.4834 46.3964 80.1805 45.5382 79.9785 44.6799C79.9785 44.0489 79.9785 43.4178 79.9785 42.7615C80.8115 42.7615 81.3416 41.8023 82.4018 42.1304C82.3009 43.8217 82.4018 45.412 83.2348 46.9013C83.4368 47.3304 84.0678 47.8605 83.4368 48.1634C82.8057 48.4916 81.9474 48.6935 81.3164 47.8353C81.1144 47.7595 81.0135 47.4314 80.8115 47.1285Z" fill="#062B4E"/>
<path d="M72.9858 9.26422C73.314 9.06228 73.6169 8.93606 73.945 8.73412C74.6771 8.83509 75.6363 9.06228 75.8382 8.83509C76.1664 8.63315 75.5101 8.30499 75.1062 7.97684C75.9392 7.64868 77.5295 6.48752 77.4285 6.18461C77.3276 5.98266 76.2674 6.38655 75.4343 6.91664C76.0654 6.48752 76.1664 6.38655 76.7975 5.95742C76.8984 5.85645 77.4285 5.42732 77.2266 5.22538C77.0246 5.02344 75.6363 5.75548 75.0052 6.08363C75.5353 5.65451 75.4344 5.75548 75.9644 5.45257C76.2926 5.25062 76.5955 5.02344 76.6965 4.8215C76.7975 4.72053 76.7975 4.61956 76.6965 4.49334C76.5955 4.39237 76.4945 4.39237 76.1664 4.49334C75.6363 4.69528 75.1062 4.92247 74.1722 5.45257C74.9043 4.92247 75.0052 4.8215 75.3334 4.49334C75.4344 4.39237 75.4343 4.39237 75.4343 4.2914C75.4343 4.2914 75.4344 4.2914 75.3334 4.19043C75.3334 4.19043 75.1314 4.19043 75.0052 4.19043C74.2732 4.51859 73.4149 4.92247 72.6829 5.3516C72.2538 5.55354 71.5217 5.88169 70.5625 6.41179" fill="#FF948F"/>
<path d="M74.1465 10.1222C74.1465 10.1222 65.8164 12.7727 66.0183 15.095C66.4474 18.6038 71.0921 22.7183 72.4552 23.4756L73.9445 23.6775C73.9445 23.6775 74.6766 26.6562 76.696 27.8173C76.696 27.8173 78.9173 25.495 79.8513 23.3746C79.8513 23.3746 82.8047 23.8038 85.329 25.1669C87.8533 26.5552 91.9678 31.1999 92.5989 37.6873C93.2299 44.1494 86.263 47.4309 86.263 47.4309L88.1562 52.53L87.1969 53.161C89.1911 57.0737 91.3115 62.7028 91.4125 67.4737C91.6144 75.7533 87.1969 76.9144 85.1775 77.0154C85.1775 77.0154 82.527 81.5843 69.5523 82.3164C68.7193 80.297 68.2902 78.0756 69.2241 76.4853L75.03 74.794C75.03 74.794 71.7484 74.2639 71.9756 73.7338C72.1775 73.2038 73.1368 69.3921 73.6669 68.5339C73.6669 68.5339 69.0222 65.6814 67.4319 60.4814C66.5989 57.73 66.5989 55.2814 66.8008 53.5902C65.1096 53.262 63.9484 52.9591 63.9484 52.9591C63.9484 52.9591 69.2241 37.6873 65.7406 29.1047C62.2572 20.5222 54.9873 15.9533 61.096 10.4504C64.7814 7.1688 70.6882 5.47754 70.6882 5.47754C70.6882 5.47754 73.7426 5.98239 74.1465 10.1222Z" fill="#DA281C"/>
<path d="M63.9238 53.0602C63.9238 53.0602 72.153 55.6097 80.8112 54.3223C80.8112 54.3223 78.1607 31.3262 76.5957 28.6757C76.5957 28.6757 75.7627 30.064 75.0054 31.8563C73.5161 30.6951 72.153 28.3475 72.4811 23.5767" stroke="white" stroke-width="0.25" stroke-miterlimit="10"/>
<path d="M77.6309 28.6758C77.6309 28.6758 79.4231 29.534 80.0542 30.7962C80.0542 30.7962 81.1144 27.7165 80.7862 24.0059" stroke="white" stroke-width="0.25" stroke-miterlimit="10"/>
<path d="M83.1328 40.9692C83.1328 40.9692 84.193 42.4586 85.127 46.2702" stroke="white" stroke-width="0.25" stroke-miterlimit="10"/>
<path d="M71.2946 10.3243C71.2946 10.3243 71.2946 8.53211 67.9121 6.5127" stroke="white" stroke-width="0.25" stroke-miterlimit="10"/>
<path d="M88.1812 52.5303C88.1812 52.5303 86.5909 54.4488 83.1075 53.9187L81.1133 50.208" stroke="white" stroke-width="0.25" stroke-miterlimit="10"/>
<path d="M80.1798 43.5183C79.7506 43.5183 79.4477 43.6193 79.1196 43.6193C78.4885 43.1902 77.6302 42.6601 77.4283 42.7611C77.1001 42.7611 77.4283 43.3921 77.8574 43.8213C77.0244 43.8213 75.106 44.2504 75.106 44.5533C75.106 44.7552 76.2671 44.7552 77.3273 44.6543C76.5953 44.7552 76.4943 44.8562 75.737 44.9824C75.5351 44.9824 74.904 45.3106 75.005 45.5125C75.106 45.8407 76.6963 45.7145 77.4283 45.6135C76.7972 45.7145 76.9992 45.7145 76.2671 45.8154C75.939 45.9164 75.5351 45.9164 75.3079 46.1436C75.2069 46.2446 75.106 46.2446 75.2069 46.3455C75.3079 46.4465 75.4089 46.5475 75.6361 46.5475C76.1662 46.5475 76.7972 46.5475 77.8574 46.4465C77.0244 46.6484 76.7972 46.6484 76.4943 46.8756C76.3934 46.8756 76.2924 46.8756 76.2924 46.9766C76.2924 47.0776 76.2924 47.0776 76.3934 47.1785C76.3934 47.1785 76.5953 47.2795 76.7215 47.2795C77.4535 47.2795 78.4128 47.2795 79.2458 47.1785C79.6749 47.1785 80.5079 47.1785 81.5681 47.0776" fill="#FF948F"/>
<path d="M84.5978 34.3047C84.5978 34.3047 88.8133 37.8134 83.1085 40.994C81.2153 41.8523 79.9531 42.7862 79.9531 42.7862C79.9531 42.7862 81.0133 47.4561 82.2755 48.4154C82.2755 48.4154 85.4308 48.3144 89.0405 46.194" stroke="white" stroke-width="0.25" stroke-miterlimit="10"/>
<path d="M71.5215 67.272C73.9448 69.1904 78.9176 73.4312 74.6768 74.8953" stroke="white" stroke-width="0.25" stroke-miterlimit="10"/>
<path d="M83.4356 78.9343C83.4356 78.9343 91.5638 73.5324 83.1074 58.8916" stroke="white" stroke-width="0.25" stroke-miterlimit="10"/>
<path d="M45.3446 39.9593C45.3446 39.9593 47.1873 41.4739 49.333 41.1205C51.4786 40.7671 52.1349 39.8836 52.2611 39.2777C52.3873 38.6719 52.2863 37.8389 52.2863 37.8389L52.7407 36.3243L51.2262 33.3457L46.3543 34.6331L44.4611 36.4001L44.1582 38.0661L44.9155 39.3535L45.3446 39.9593Z" fill="#F8A4A6"/>
<path d="M46.2284 37.8387C46.2284 37.8387 48.0711 34.7338 50.5954 34.7338C53.1197 34.7338 52.3119 37.8387 52.3119 37.8387C52.3119 37.8387 52.4129 37.9901 52.6401 37.561C53.0692 36.7785 53.4983 30.4173 47.4401 31.1998C42.2148 31.8814 42.3158 38.9746 45.3702 39.9843V39.1261C45.3702 39.1261 44.3352 38.5202 44.5876 37.7882C44.8401 37.0562 45.9255 38.0911 46.0012 38.2678C46.077 38.4193 46.2284 37.8387 46.2284 37.8387Z" fill="#062B4E"/>
<path d="M51.0495 38.5204H50.4941L50.6204 37.2583H50.8475L51.0495 38.5204Z" fill="#A8425F"/>
<path d="M37.873 37.889C37.873 37.889 38.9585 37.2074 39.2362 36.7783" stroke="white" stroke-width="0.5" stroke-miterlimit="10"/>
<path d="M44.1582 46.4211C44.1582 46.4211 50.2922 47.456 53.9524 45.6133" stroke="white" stroke-width="0.5" stroke-miterlimit="10"/>
<path d="M39.791 63.6367C39.791 63.6367 40.1444 64.8231 41.1794 65.2522" stroke="white" stroke-width="0.5" stroke-miterlimit="10"/>
<path d="M50.6211 65.2524C50.6211 65.2524 51.656 65.8078 52.2114 65.7573" stroke="white" stroke-width="0.5" stroke-miterlimit="10"/>
</svg>
