<svg width="98" height="104" viewBox="0 0 98 104" fill="none" xmlns="http://www.w3.org/2000/svg">
<g clip-path="url(#clip0)">
<path d="M90.6546 21.752L61.5767 29.9888C57.4902 31.179 53.4037 28.6888 52.211 24.5691L50.3823 17.852C49.3045 13.7348 51.6593 9.50789 55.6564 8.42497L60.2997 7.12496L84.7343 0.297983C88.8208 -0.892205 92.9072 1.598 94.1 5.71768L95.9287 12.4348C97.1138 16.3349 94.7436 20.5618 90.6546 21.752Z" fill="#EBEDF5"/>
<path d="M69.8417 23.6857C69.8417 23.6857 59.1147 26.9549 58.0343 17.9595C56.954 8.96412 64.4935 7.99869 68.9069 9.50813L69.0397 9.5541C70.7795 10.1724 72.2846 11.315 73.3477 12.8245C74.4107 14.3341 74.9794 16.1362 74.9754 17.9825V20.7919L69.8417 23.6857Z" fill="white"/>
<path d="M75.5859 85.8969C77.5219 86.3311 77.739 87.958 77.8463 89.5824C77.9535 91.3166 77.739 93.0482 78.5997 94.6752C78.8143 95.1094 79.0314 95.4414 79.4604 95.541C79.8921 95.541 79.9993 95.1093 80.2139 94.7748C81.1844 92.6089 82.3669 85.6747 82.4742 84.482C82.4742 84.3747 79.4604 83.1819 77.8463 82.9648C77.2001 84.0554 76.9856 85.5725 75.5859 85.8969Z" fill="#FF948F"/>
<path d="M74.7234 91.207C73.5383 93.1583 71.7071 93.8071 69.554 93.6998C72.1387 94.5656 72.4605 95.434 71.1707 98.2511C70.6318 99.5511 69.6613 100.634 69.554 102.151C69.4468 102.693 69.4468 103.344 69.9857 103.668C70.5246 103.993 76.6594 98.5755 78.059 95.8656C78.8125 94.7827 74.938 92.7241 74.7234 91.207Z" fill="#FF948F"/>
<path d="M68.7988 25.8696C69.8766 25.7623 71.0592 25.1034 72.137 26.0867C73.2122 26.6281 73.105 25.655 73.3195 25.111C71.4908 24.7867 71.2763 23.2695 71.0592 21.7524C70.413 23.3794 69.5523 24.5696 68.7988 25.8696Z" fill="#F26A6C"/>
<path d="M40.8124 30.0963C40.8124 30.0963 48.4542 29.9865 48.6712 27.6036C48.9931 25.0035 44.3651 22.945 41.027 22.0792L42.751 17.9595C42.751 17.9595 48.6713 19.3693 52.3312 23.0522C57.7126 28.5792 53.9454 35.2964 42.2121 36.4891C33.2754 37.3549 40.8124 30.0963 40.8124 30.0963Z" fill="#FF948F"/>
<path d="M42.9662 21.9691C42.4273 22.0789 40.0597 23.052 39.5208 22.8375C39.1989 22.6204 39.7378 22.0713 40.3815 21.6447C39.4135 21.3204 37.1532 20.2349 37.2604 19.9105C37.3677 19.5862 38.7673 20.0178 39.8451 20.452C39.2148 20.2076 38.6028 19.9183 38.0139 19.5862C37.7993 19.4764 37.1532 19.0447 37.2477 18.7178C37.4622 18.3934 39.2909 19.0447 40.1542 19.3691C39.4007 19.0447 39.7251 19.152 38.9716 18.7178C38.6473 18.5033 38.2182 18.3934 37.8938 18.0691C37.7866 17.9592 37.6793 17.852 37.7866 17.7447C37.8938 17.6374 38.1084 17.6349 38.4327 17.6349C39.329 17.8052 40.1978 18.0974 41.0149 18.5033C40.0469 17.9592 39.8323 17.852 39.508 17.6349C39.4007 17.5276 39.2934 17.5276 39.2934 17.4178C39.297 17.3618 39.3207 17.309 39.3601 17.2691C39.3995 17.2292 39.452 17.2049 39.508 17.2007C39.6348 17.1154 39.7876 17.0774 39.9396 17.0934C41.3392 17.3105 43.4923 18.0691 44.7923 19.2618C44.9395 19.3998 45.055 19.5681 45.1309 19.755C45.2067 19.942 45.2411 20.1432 45.2316 20.3447C45.1057 20.7535 44.8327 21.1011 44.4654 21.3204C44.0363 21.5349 42.744 21.4277 42.3123 21.5349" fill="#FF948F"/>
<path d="M45.0103 99.117C44.9031 98.8999 44.6885 98.8999 44.3642 98.8999C44.539 98.8259 44.691 98.7067 44.8045 98.5545C44.9181 98.4024 44.9891 98.2227 45.0103 98.0341C44.7958 97.5999 44.1496 97.817 43.8278 97.9268C44.0423 97.7097 43.8278 97.3828 43.5034 97.2755C43.2889 97.1683 43.1816 97.2755 43.0718 97.2755L41.1461 94.4584L41.5751 91.7486C41.685 91.6413 42.0068 91.534 42.114 91.4242C42.7602 89.1485 41.8995 86.8729 39.6392 86.2242C37.4861 85.5729 35.0087 86.8729 34.3625 89.0336V89.1409L32.9629 94.1264L43.082 99.0021C43.4064 99.2192 43.8482 99.3264 44.1598 99.5435L44.4816 99.7606C44.496 99.7599 44.5104 99.7622 44.5239 99.7673C44.5374 99.7724 44.5496 99.7802 44.56 99.7903C44.5703 99.8004 44.5784 99.8125 44.5838 99.8258C44.5892 99.8392 44.5918 99.8535 44.5915 99.8679C44.6732 99.8797 44.7486 99.9184 44.806 99.9777C45.0103 99.6585 45.1176 99.4439 45.0103 99.117Z" fill="#FF948F"/>
<path d="M38.2287 26.9545L8.51491 22.5104C6.5223 22.1913 4.73318 21.1064 3.52895 19.4871C2.32473 17.8678 1.80066 15.8421 2.06849 13.842L3.03902 7.01753C3.67243 2.79058 7.43199 -0.133811 11.6385 0.514918L16.3712 1.1662L41.4571 4.84914C43.4517 5.16593 45.2436 6.2497 46.4503 7.86919C47.6571 9.48868 48.1831 11.5157 47.9163 13.5176L46.9457 20.4518C46.609 22.4493 45.515 24.2401 43.8913 25.4513C42.2676 26.6625 40.2394 27.2009 38.2287 26.9545V26.9545Z" fill="#EBEDF5"/>
<path d="M23.6973 61.5106L18.2061 61.6204H18.0989L12.6076 61.7277L7.11899 61.6204L7.01172 67.9034C7.11899 72.562 8.28874 71.6961 10.0255 72.3449L16.6992 74.8376H19.713L26.2795 72.2376C27.1726 71.8575 27.9345 71.2237 28.4707 70.4146C29.0069 69.6056 29.2938 68.6569 29.2958 67.6863L29.0787 61.4033L23.6973 61.5106Z" fill="#8FB8E5"/>
<path d="M19.5667 59.6234C19.5667 59.6234 44.8518 61.6462 45.0894 61.59C46.3814 61.7078 47.5751 62.3297 48.412 63.3211C49.2489 64.3125 49.6617 65.5937 49.561 66.8872C49.4602 68.1807 48.8541 69.3825 47.8738 70.2324C46.8935 71.0823 45.6179 71.5119 44.3231 71.4282C44.2184 71.4052 19.4493 69.058 19.4493 69.058C19.2683 69.1049 19.0777 69.0987 18.9001 69.0401C16.2873 68.8741 14.3999 66.5397 14.5736 63.9091C14.829 61.4112 16.9667 59.3526 19.4774 59.4931L19.5821 59.5187L19.5667 59.6234Z" fill="#8FB8E5"/>
<path d="M46.6233 61.8429C47.8388 62.2101 48.8602 63.0424 49.4653 64.1587C50.0703 65.2751 50.2101 66.5852 49.8542 67.804L41.8881 93.6919C39.0253 93.2963 36.2336 92.4939 33.5977 91.309L40.8103 65.0865C40.9682 64.4853 41.2459 63.9222 41.6267 63.4309C42.0075 62.9396 42.4836 62.5303 43.0264 62.2274C43.5692 61.9245 44.1676 61.7343 44.7856 61.6683C45.4037 61.6022 46.0288 61.6616 46.6233 61.8429V61.8429Z" fill="#8FB8E5"/>
<path d="M31.8753 103.344C31.8256 103.244 31.7489 103.161 31.654 103.104C31.5591 103.047 31.4499 103.017 31.339 103.019C31.6608 102.909 32.1052 102.585 32.1052 102.253C31.9979 101.819 31.2419 101.819 31.0274 101.926C31.0754 101.875 31.1088 101.812 31.124 101.744C31.1392 101.675 31.1356 101.604 31.1136 101.538C31.0916 101.471 31.0521 101.412 30.9991 101.366C30.9462 101.32 30.8818 101.29 30.8128 101.277C30.6822 101.201 30.5326 101.163 30.3812 101.168L28.8743 98.1333L29.735 95.5333C29.8448 95.426 30.1666 95.426 30.2739 95.3162C31.2419 93.2576 30.7055 90.7674 28.6598 89.7918C26.614 88.8161 24.0293 89.682 23.0613 91.7405V91.8504L20.9082 96.509L30.1615 102.802C30.5108 103.022 30.8354 103.279 31.1295 103.568L31.4539 103.783C31.4682 103.783 31.4823 103.786 31.4955 103.791C31.5087 103.797 31.5207 103.805 31.5307 103.815C31.5407 103.825 31.5485 103.838 31.5537 103.851C31.559 103.864 31.5615 103.878 31.5612 103.893C31.6684 104 31.6684 104 31.7757 104C31.768 103.775 31.8753 103.451 31.8753 103.344Z" fill="#FF948F"/>
<path d="M37.3668 75.3866L11.8518 75.1695C9.16237 75.1695 6.25586 74.0253 6.25586 68.6618C6.25586 66.8407 9.16237 65.1934 11.9616 65.1934L37.0577 65.745H37.5941C40.1788 65.745 42.3318 67.9109 42.3318 70.6207C42.3311 71.8608 41.8475 73.0518 40.9836 73.9414C40.1197 74.8311 38.9434 75.3494 37.7039 75.3866H37.3668Z" fill="#8FB8E5"/>
<path d="M39.197 66.619C41.5672 67.702 42.5352 70.6289 41.5672 73.0042L29.724 97.3826C26.9412 96.5352 24.2945 95.2923 21.8652 93.692L32.9549 68.9866C33.209 68.421 33.572 67.911 34.0234 67.4859C34.4747 67.0607 35.0054 66.7287 35.5851 66.5088C36.1649 66.2889 36.7823 66.1854 37.4021 66.2043C38.0218 66.2233 38.6318 66.3642 39.197 66.619Z" fill="#8FB8E5"/>
<path d="M30.4784 11.084C28.7953 8.01917 22.4025 8.97694 20.4639 12.6675C20.3567 13.8603 20.3975 14.2511 20.1804 15.5511C20.1804 15.7682 19.496 16.8766 19.3887 16.8766C18.9031 16.771 18.3954 16.8605 17.9753 17.126C17.5552 17.3915 17.2564 17.8116 17.1433 18.2955C17.0303 18.7794 17.1122 19.2884 17.3713 19.7125C17.6303 20.1366 18.0458 20.4418 18.528 20.5621C18.8048 20.6695 19.1118 20.6695 19.3887 20.5621L18.6352 26.1964C18.5484 26.3628 18.5112 26.5508 18.528 26.7378C18.3751 27.8805 18.671 29.038 19.3534 29.9671C20.0359 30.8963 21.0518 31.5248 22.1879 31.7208C24.5555 32.0477 26.7086 30.4208 27.0406 27.928C27.0406 27.7135 27.1479 27.6036 27.1479 27.3865L27.4697 25.0036C29.8399 24.5694 30.486 22.1942 30.486 20.1279C30.3686 18.0694 30.4784 11.1964 30.4784 11.084Z" fill="#FF948F"/>
<path d="M18.527 18.8268C18.7416 18.6097 18.9561 18.3926 19.2933 18.3926L19.0787 18.1755C18.8302 18.0813 18.5738 18.0095 18.3125 17.961C18.5024 17.9116 18.7022 17.9149 18.8904 17.9706C19.0786 18.0262 19.2481 18.132 19.3807 18.2767C19.5133 18.4213 19.604 18.5994 19.643 18.7917C19.6821 18.984 19.668 19.1834 19.6023 19.3683C19.6023 19.3683 19.495 18.7196 19.2805 18.5025L18.527 18.8268Z" fill="#A8425F"/>
<path d="M27.3536 25.0033C26.4938 25.1297 25.6179 25.0933 24.7715 24.896L26.9245 27.496L27.3536 25.0033Z" fill="#413957"/>
<path d="M24.3438 21.1211C24.451 21.8873 25.11 22.6382 26.387 22.204C25.9442 22.2624 25.4941 22.1868 25.0946 21.9869C24.6681 21.7698 24.3438 21.1211 24.3438 21.1211Z" fill="#A8425F"/>
<path d="M36.3988 31.1792C32.8461 30.413 30.3687 29.2305 27.0331 28.3697C26.4751 29.0318 25.7557 29.5386 24.9445 29.841C24.1333 30.1435 23.2577 30.2314 22.4026 30.0963H22.188C21.3299 29.9823 20.5179 29.6409 19.8362 29.1073C19.1544 28.5738 18.6278 27.8677 18.311 27.0621C14.8681 26.9548 13.683 26.9548 10.7765 28.7963C8.40892 31.289 8.94528 42.9917 8.94528 42.9917L6.25586 68.6624C6.25586 68.6624 7.76275 70.6137 16.5895 71.9137H16.8066C25.5262 73.2138 29.0661 65.194 29.0661 65.194L31.7581 45.4742C31.5537 45.4819 37.474 32.1548 36.3988 31.1792Z" fill="#8FB8E5"/>
<path d="M41.0276 28.4717C36.3997 29.2379 33.2761 27.8204 26.0634 29.879C23.6958 30.6452 25.2027 34.4303 26.4951 36.4889C26.6023 36.5961 26.6023 36.706 26.7096 36.706C27.034 37.2474 27.6776 37.6816 28.3238 38.006C28.5204 38.1253 28.7411 38.1995 28.9699 38.2231C31.7794 39.0889 36.1826 38.6547 40.7186 37.5718C40.8131 37.7889 41.9956 33.8888 41.0276 28.4717Z" fill="#8FB8E5"/>
<path d="M38.8727 38.2233C39.2866 35.1326 39.3234 32.0031 38.9826 28.9036C38.9826 28.689 38.7655 28.689 38.7655 28.9036C39.1078 31.9663 39.0718 35.0596 38.6582 38.1135C38.6582 38.3306 38.8727 38.3306 38.8727 38.2233Z" fill="white"/>
<path d="M19.8184 31.396C20.8326 31.8669 21.9316 32.1275 23.0492 32.1622C23.2638 32.1622 23.2638 31.9451 23.0492 31.9451C21.9595 31.962 20.8838 31.6981 19.9256 31.1789C19.8184 31.0716 19.6038 31.2887 19.8184 31.396Z" fill="white"/>
<path d="M16.5918 27.3866C16.8089 28.3622 17.1307 29.1208 17.8841 29.7721C17.9914 29.8793 18.2085 29.6622 18.0987 29.555C17.4799 28.9391 17.0668 28.1469 16.9162 27.287C16.8089 27.1695 16.5918 27.1695 16.5918 27.3866Z" fill="white"/>
<path d="M25.3091 31.7206C26.0133 31.5376 26.6727 31.2126 27.2468 30.7655C27.8208 30.3184 28.2974 29.7586 28.6472 29.1206C28.7545 29.0133 28.5374 28.9035 28.4301 29.0133C28.0821 29.6202 27.6178 30.1525 27.0639 30.5798C26.5099 31.0071 25.8772 31.321 25.2018 31.5035C25.092 31.6133 25.2018 31.8304 25.3091 31.7206Z" fill="white"/>
<path d="M14.0078 39.0886C14.0078 39.0886 21.2256 51.7669 28.6502 49.5985C36.0774 47.54 36.509 29.986 36.509 29.986L31.8785 29.3296C31.8785 29.3296 30.0473 42.2224 26.8189 42.981C23.6979 43.8494 19.7136 33.8809 19.7136 33.8809L14.0078 39.0886Z" fill="#FF948F"/>
<path d="M23.8022 38.8719C20.2495 33.9962 18.7426 30.4205 18.7426 30.4205L18.2063 29.8791C17.8819 29.0133 17.2358 28.362 16.375 27.8205C14.222 26.5205 11.5223 27.1718 10.3475 29.3376C10.3065 29.3802 10.2756 29.4315 10.257 29.4876C10.2385 29.5438 10.2327 29.6033 10.2402 29.662C9.93427 30.3039 9.78711 31.0099 9.81112 31.7205V32.5889C10.2402 35.5133 13.3613 40.2817 16.2678 43.8574C16.1605 43.7501 19.8205 42.5574 23.8022 38.8719Z" fill="#8FB8E5"/>
<path d="M14.8692 42.1232C16.371 41.689 17.7757 40.8232 19.0655 40.057C20.3653 39.2767 21.5593 38.3324 22.6182 37.2476C22.728 37.1403 22.5109 36.9232 22.4037 37.0305C21.4357 38.1134 20.1433 38.9818 18.851 39.8399C17.5586 40.6981 16.2688 41.4668 14.7645 41.8985C14.6521 41.9061 14.7594 42.1232 14.8692 42.1232Z" fill="white"/>
<path d="M27.1417 20.0179L25.6348 19.8034L26.4955 16.335L27.1417 16.4422V20.0179Z" fill="#413957"/>
<path d="M32.9538 31.3962C32.632 30.9621 30.8008 29.1206 30.8008 28.5868C30.8008 28.1526 31.567 28.4795 32.2004 28.9112C32.0931 27.8282 32.3077 25.4453 32.632 25.3355C32.9564 25.2257 33.0611 26.7453 33.0611 27.9355C33.0611 26.9624 33.1684 26.8526 33.1684 25.9868C33.1684 25.7697 33.3855 24.9038 33.6 25.0111C33.9244 25.1209 34.0317 27.0697 34.1389 27.9355C34.2293 27.4696 34.2662 26.9949 34.2487 26.5206C34.2148 26.0763 34.2884 25.6304 34.4633 25.2205C34.5731 25.1133 34.6804 25.0035 34.7877 25.0035C34.9201 25.1277 35.0291 25.2748 35.1095 25.4376C35.2635 26.3317 35.3361 27.2378 35.3266 28.1449C35.4338 26.9548 35.4338 26.7377 35.5411 26.3035C35.5526 26.2215 35.5902 26.1453 35.6484 26.0864C35.7556 25.9791 35.8629 26.0864 35.9702 26.1962C36.0566 26.2943 36.1296 26.4033 36.1873 26.5206C36.5091 27.9278 36.6164 30.3133 36.08 31.9377C36.0095 32.1261 35.894 32.2945 35.7435 32.428C35.593 32.5616 35.4122 32.6563 35.2167 32.7039C34.7877 32.8138 34.356 32.5967 34.0342 32.3796C33.7098 32.0552 33.268 30.8625 33.0637 30.4283" fill="#FF948F"/>
<path d="M11.8516 37.4647C12.9161 39.8554 14.3714 42.0521 16.1577 43.9647C16.2675 44.0746 16.3748 43.8575 16.3748 43.7502C14.6347 41.8663 13.2162 39.7092 12.1759 37.3651C11.9614 37.2476 11.8516 37.3548 11.8516 37.4647Z" fill="white"/>
<path d="M16.4822 43.9645C16.6993 43.8572 16.8066 43.8572 16.9139 43.7474C17.0212 43.6375 17.0212 43.5303 16.8066 43.5303C16.5921 43.6401 16.4822 43.6401 16.375 43.7474C16.2677 43.7474 16.3724 44.0743 16.4822 43.9645Z" fill="white"/>
<path d="M11.3125 38.5472C11.6623 38.9923 12.1579 39.2998 12.7121 39.4156C12.8194 39.4156 12.8194 39.1985 12.7121 39.1985C12.1988 39.1189 11.7359 38.8445 11.4198 38.4323C11.4198 38.2228 11.3125 38.3301 11.3125 38.5472Z" fill="white"/>
<path d="M15.4084 27.6033C16.3763 27.7131 17.2371 28.579 17.8832 29.3375C18.8538 30.3132 19.6072 31.6132 20.3607 32.6961C21.5432 34.5376 22.4039 36.706 23.6963 38.4402C23.8061 38.5474 23.9133 38.4402 23.9133 38.3303C22.5137 36.3816 21.5432 34.1059 20.2534 32.0474C19.5779 30.9177 18.7833 29.8637 17.8832 28.9033C17.2371 28.2546 16.4836 27.4961 15.5156 27.3862C15.3011 27.3862 15.3011 27.6033 15.4084 27.6033Z" fill="white"/>
<path d="M23.5894 38.5474C23.3676 38.8977 23.1109 39.2246 22.8232 39.5231C22.7133 39.6304 22.9304 39.7402 23.0377 39.7402C23.3212 39.4413 23.5737 39.1144 23.7911 38.7645C23.8039 38.5474 23.5894 38.3303 23.5894 38.5474Z" fill="white"/>
<path d="M25.1862 75.1238C29.5337 71.5256 32.6813 66.6878 34.2097 61.2553C34.179 61.1251 34.013 60.9999 33.9926 61.1787C32.4193 66.7312 29.3953 71.4818 25.0202 74.9706C25.0101 74.9815 25.0023 74.9943 24.9972 75.0082C24.9921 75.0221 24.9897 75.0369 24.9903 75.0517C24.9909 75.0666 24.9944 75.0811 25.0006 75.0946C25.0069 75.1081 25.0157 75.1202 25.0266 75.1302C25.0375 75.1403 25.0503 75.1481 25.0642 75.1532C25.0781 75.1584 25.0929 75.1607 25.1077 75.1601C25.1225 75.1595 25.1371 75.156 25.1506 75.1498C25.164 75.1436 25.1761 75.1347 25.1862 75.1238Z" fill="white"/>
<path d="M33.1133 65.7305C36.1271 65.8403 33.2767 65.7458 36.3978 65.8531C37.7974 65.9603 39.2072 66.1774 40.3821 67.0458C41.4574 67.812 41.889 68.8873 41.9963 70.1873C42.1035 71.7044 41.4574 73.1117 40.8112 74.5292C40.165 75.8292 39.5188 77.0219 38.9825 78.3219C37.5829 81.1314 36.2905 83.8464 34.9982 86.6635C34.7836 86.7733 34.9982 86.8806 34.9982 86.7733C36.1832 84.0635 37.5829 81.3562 38.8727 78.6463C39.6389 77.239 40.2723 75.8368 40.9159 74.3044C41.4548 73.1117 41.9937 71.9215 41.9937 70.6215C42.101 68.236 40.7014 66.6116 38.441 65.9603C37.0414 65.636 34.6815 65.5721 33.2818 65.4648L33.1133 65.7305Z" fill="white"/>
<path d="M22.8335 91.3171C25.3109 92.8342 27.8931 94.2415 30.6923 95C30.8021 95.1098 30.9094 94.7829 30.8021 94.7829C28.011 93.9587 25.3605 92.717 22.9408 91.1C22.8335 90.9902 22.7262 91.2073 22.8335 91.3171Z" fill="white"/>
<path d="M64.5195 24.8425C64.5195 24.7352 64.6268 24.5181 64.6268 24.4108C64.6268 24.3036 64.7341 24.1938 64.8439 24.301C64.9512 24.301 64.9512 24.4109 65.0584 24.5181C65.3802 24.8425 65.3802 25.0596 65.9191 26.1425C65.5383 25.3188 65.2843 24.4422 65.1657 23.5425C65.1657 23.2181 65.1657 23.1083 65.273 23.001C65.3802 22.8937 65.4875 23.001 65.5973 23.1083C65.8888 23.4191 66.1092 23.7894 66.2435 24.1938C66.5653 24.96 66.4581 24.7352 66.7799 25.4938C66.5653 24.6254 66.0264 22.7839 66.2435 22.5668C66.4606 22.3497 66.8871 23.1083 67.0097 23.333C67.3315 24.2014 67.4388 24.3087 67.7632 25.1745C67.4388 23.9843 66.8999 22.5745 67.3315 22.4672C67.6533 22.3574 68.6239 24.6331 68.9457 25.7185C69.4846 25.1745 70.0235 24.5258 70.1308 24.9523C70.3453 25.4938 70.3453 27.228 70.1308 27.7618L71.962 33.5033L67.2243 35.0204C67.426 34.6935 64.7341 26.2651 64.5195 24.8425Z" fill="#F26A6C"/>
<path d="M34.352 88.3899C37.044 89.3656 39.9505 90.2314 42.7497 90.4485C42.9643 90.4485 42.9643 90.2314 42.7497 90.2314C39.8607 89.985 37.0275 89.2905 34.352 88.1729C34.2499 88.1729 34.2499 88.3899 34.352 88.3899Z" fill="white"/>
<path d="M71.7099 26.6276L76.6622 21.6446L71.0637 18.069C71.0637 18.069 73.0022 14.4933 70.203 13.9518C67.4037 13.4104 68.9106 16.986 68.9106 16.986C68.9106 16.986 66.0041 14.6005 62.5587 15.0271C59.1133 15.3514 59.1133 17.0856 59.1133 18.0613C59.1133 18.0613 61.9227 24.7784 64.3899 25.7541C66.7576 26.837 67.4037 26.9468 68.9106 25.7541C68.8033 25.869 69.9859 24.4617 71.7099 26.6276Z" fill="#FF948F"/>
<path d="M58.9004 27.0622C58.9004 26.9549 59.0077 26.7378 59.0077 26.628C59.0077 26.5181 59.1175 26.5207 59.332 26.5207C59.4393 26.5207 59.4393 26.628 59.5466 26.7378C59.8709 27.0622 59.8709 27.3865 60.1927 28.472C59.7637 27.1694 59.7637 26.4109 59.6538 25.7621C59.6444 25.6611 59.6592 25.5593 59.6969 25.4652C59.7347 25.371 59.7943 25.2872 59.8709 25.2207C59.9782 25.1109 60.0855 25.2207 60.1927 25.328C60.4792 25.6681 60.6657 26.081 60.7316 26.5207C60.9462 27.2869 60.9462 27.0622 61.1633 27.8207C60.9462 26.9549 60.6244 25.0113 60.9462 24.7865C61.1633 24.5694 61.5924 25.328 61.5924 25.6549C61.8069 26.5207 61.9167 26.628 62.2385 27.6036C62.024 26.4109 61.6996 24.8963 62.024 24.8963C62.3484 24.8963 63.0993 27.1694 63.301 28.2549C63.8399 27.7134 64.4861 27.1694 64.5934 27.6036C64.7007 28.1451 64.5934 29.8793 64.3788 30.3135L65.6712 36.1648L60.8185 37.2477C60.8185 37.2477 58.9004 28.5793 58.9004 27.0622Z" fill="#FF948F"/>
<path d="M64.7112 23.81L63.2043 24.3514L62.2363 20.9929L62.7752 20.7783L64.7112 23.81Z" fill="#413957"/>
<path d="M93.6707 53.5011C90.4424 47.7571 90.0108 32.1544 88.2893 25.003C86.5679 17.8517 78.5993 20.4517 78.5993 20.4517L77.0924 19.4761L70.9627 26.6274L71.0674 29.0129C67.0831 30.53 65.5762 33.0202 65.5762 33.0202C60.6239 32.0471 59.0097 34.8642 59.0097 34.8642C59.0097 34.8642 61.1628 50.8986 64.8227 50.3571C68.4827 49.8156 71.7187 46.24 71.7187 46.24L73.4043 53.5931C73.4043 53.5931 60.4068 60.9692 56.9614 64.435C53.5159 67.9009 56.8541 73.7701 57.4926 75.2795C58.8922 78.421 68.7968 94.9994 68.7968 94.9994C77.6875 93.6994 81.3602 76.1377 81.3602 76.1377L72.3495 73.3282C72.3495 73.3282 80.2083 72.1381 87.2039 68.8867C94.3092 65.5282 95.7089 59.2426 93.6631 53.5011H93.6707Z" fill="#DA281C"/>
<path d="M72.6777 27.9279L78.598 20.4521" stroke="white" stroke-width="0.25" stroke-miterlimit="10"/>
<path d="M59.5352 37.6821C59.5352 37.6821 62.0126 35.8381 64.9191 36.2722" stroke="white" stroke-width="0.25" stroke-miterlimit="10"/>
<path d="M66.5156 35.1022C66.5156 35.1022 68.209 32.5226 71.0874 31.9326" stroke="white" stroke-width="0.25" stroke-miterlimit="10"/>
<path d="M25.145 18.6436C24.6341 19.2386 24.085 19.8133 23.541 20.3829C24.2575 20.0019 24.8232 19.3885 25.145 18.6436V18.6436Z" fill="#A8425F"/>
<path d="M27.3535 19.2417C27.8236 19.7296 28.3653 20.143 28.96 20.4676C28.559 19.9032 27.9256 19.6248 27.3535 19.2417Z" fill="#A8425F"/>
<path d="M67.8986 93.5032C72.6551 88.4534 76.4327 82.5644 79.0394 76.1356C79.0394 76.0079 78.904 75.9083 78.8478 76.1177C76.2986 82.5383 72.537 88.4079 67.7684 93.4061C67.6483 93.5645 67.7786 93.6615 67.8986 93.5032Z" fill="white"/>
<path d="M66.8411 22.8271C66.0749 22.6943 65.2909 22.5359 64.5195 22.375C65.221 22.7813 66.0385 22.9404 66.8411 22.8271V22.8271Z" fill="#A8425F"/>
<path d="M31.9953 12.2177C31.7807 11.6788 28.675 8.55268 29.7171 10.458C30.2483 11.0786 30.4143 11.6431 30.4603 12.6315C30.4603 11.7044 30.4603 10.9382 30.4322 16.5826C31.3874 15.7372 32.2609 12.8946 31.9953 12.2177Z" fill="white"/>
<path d="M27.2828 8.05742C25.7504 7.36528 22.0215 7.52874 21.429 7.61302L21.3345 7.62579L23.4696 7.98336L19.4062 9.30125C19.873 9.74619 20.398 10.1259 20.9667 10.4301L20.8773 10.4097C20.8773 10.4097 18.6553 11.0431 17.9963 12.4529C17.9364 12.5776 17.891 12.7087 17.8609 12.8437C17.8475 12.8991 17.8381 12.9555 17.8329 13.0123C17.8098 13.3451 17.833 13.6794 17.9018 14.0058C18.1572 15.4284 19.493 17.6275 19.9859 18.7078C20.2132 19.2008 20.3665 19.5123 20.3665 19.5123L20.9718 18.7461L21.0714 18.621C21.0714 18.621 20.8773 16.1946 20.816 15.3007C20.7547 14.4068 21.1914 14.2178 21.1914 14.2178C21.1646 14.0437 21.151 13.8678 21.1506 13.6917C21.1506 13.1809 21.2374 12.4146 21.7712 11.9524C22.1585 11.6519 22.6122 11.4487 23.0942 11.3598C26.4145 12.3814 29.6402 10.5246 29.6402 10.5246V10.2182V9.87336C29.6402 9.87336 28.966 8.82364 27.2828 8.05742Z" fill="white"/>
<path d="M76.8008 15.3854C78.0226 14.1636 77.5068 11.6667 75.6486 9.80854C73.7904 7.95035 71.2935 7.43448 70.0717 8.65632C68.8499 9.87816 69.3657 12.375 71.2239 14.2332C73.0821 16.0914 75.579 16.6073 76.8008 15.3854Z" fill="white"/>
<path d="M87.63 32.3945C87.63 32.3945 80.9562 41.2775 74.7116 43.3361C68.4669 45.3947 65.8848 32.7189 65.8848 32.7189" stroke="white" stroke-width="0.25" stroke-miterlimit="10"/>
<path d="M80.9894 21.7139C80.9894 21.7139 77.4367 33.0896 75.608 34.0652C73.7793 35.0409 71.5215 28.9725 71.5215 28.9725" stroke="white" stroke-width="0.25" stroke-miterlimit="10"/>
<path d="M62.5147 84.3445C62.5147 84.3445 53.5909 70.1057 58.0324 65.2019C61.253 61.6492 74.2506 57.9229 74.2506 57.9229" stroke="white" stroke-width="0.25" stroke-miterlimit="10"/>
<g style="mix-blend-mode:multiply" opacity="0.29">
<path d="M19.3748 15.18C19.6554 15.2041 19.9378 15.1666 20.2024 15.0702C19.9323 15.355 19.5707 15.5358 19.1807 15.581C19.1247 15.5862 19.0682 15.5862 19.0122 15.581C19.3723 16.7278 19.6405 17.9409 19.9929 18.7097C20.1002 18.9498 20.233 19.2205 20.3786 19.5296L21.0835 18.6484C21.0835 18.6484 20.8894 16.2118 20.8281 15.3103C20.7668 14.4087 21.2035 14.235 21.2035 14.235C21.1751 14.0619 21.1606 13.8868 21.1601 13.7114C20.5931 14.1737 20.0568 14.7075 19.4872 14.6488C19.1836 14.5991 18.9002 14.4645 18.6699 14.2605C18.7082 14.4776 18.7619 14.7024 18.8232 14.9374C18.9994 15.0472 19.0428 15.1698 19.3748 15.18Z" fill="#575767"/>
</g>
<g style="mix-blend-mode:multiply" opacity="0.29">
<path d="M18.5254 13.2165C18.846 13.3297 19.1785 13.4059 19.5164 13.4438C20.0277 13.4885 20.5407 13.3772 20.9875 13.1245H20.962C20.4652 13.2541 19.941 13.2309 19.4576 13.0581C19.1842 12.9522 18.9224 12.8187 18.6761 12.6597C18.617 12.7838 18.5716 12.9139 18.5407 13.0479C18.5316 13.1036 18.5265 13.16 18.5254 13.2165V13.2165Z" fill="#575767"/>
</g>
<g style="mix-blend-mode:multiply" opacity="0.29">
<path d="M21.9336 9.57373C21.9336 9.57373 22.0204 10.1407 23.1391 10.884L23.5094 11.0321C26.725 12.2887 29.7464 10.3834 29.7464 10.3834C28.2356 10.6993 26.6857 10.7854 25.1491 10.6388C22.756 10.3987 21.9336 9.57373 21.9336 9.57373Z" fill="#575767"/>
</g>
<g style="mix-blend-mode:multiply" opacity="0.29">
<path d="M23.0493 8.98403C23.9255 9.3661 24.8423 9.64716 25.7821 9.82176C26.8427 10.0486 27.9261 10.1506 29.0104 10.1257C29.0104 10.1257 25.8025 9.57147 24.6532 9.30329C23.9834 9.14695 23.3227 8.95426 22.6738 8.72607L23.0493 8.98403Z" fill="#575767"/>
</g>
<g style="mix-blend-mode:multiply" opacity="0.29">
<path d="M74.5019 15.9538C74.5019 15.9538 74.8467 15.4992 74.6066 14.166L74.4559 13.7982C73.1252 10.6108 69.6543 9.76025 69.6543 9.76025C70.93 10.6325 72.0673 11.6914 73.0282 12.9017C74.5325 14.7968 74.5019 15.9538 74.5019 15.9538Z" fill="#575767"/>
</g>
<g style="mix-blend-mode:multiply" opacity="0.29">
<path d="M31.8164 11.9472C31.5252 11.6637 29.201 9.87591 29.8676 10.6523C30.2533 11.1427 30.404 11.725 30.4551 12.504C30.4755 12.8386 30.4551 13.2166 30.4551 13.6329C30.4551 14.3276 30.4551 15.6098 30.4398 16.5905C31.2009 15.8473 32.5954 12.7109 31.8164 11.9472Z" fill="#575767"/>
</g>
<g style="mix-blend-mode:multiply" opacity="0.29">
<path d="M59.22 16.9937C59.1421 17.3466 59.1061 17.7075 59.1128 18.0689C59.1485 18.1685 60.8368 22.0073 62.1776 23.6878C62.1776 23.6878 60.0246 22.9982 59.0183 21.0188C58.39 19.8006 59.22 16.9937 59.22 16.9937Z" fill="#575767"/>
</g>
<path d="M62.7208 15.2314C62.044 15.1023 61.3475 15.1189 60.6776 15.2799C60.2437 15.5545 59.85 15.888 59.5078 16.2709C60.0186 16.0793 61.2522 15.663 62.2764 15.6809C63.0291 15.6788 63.7646 15.905 64.3861 16.3296C63.9919 15.764 63.396 15.371 62.7208 15.2314V15.2314Z" fill="white"/>
<g style="mix-blend-mode:multiply" opacity="0.29">
<path d="M64.4311 14.583C62.6101 14.1233 60.1199 14.8997 60.0254 14.8997L61.8132 15.1398C62.7037 14.9578 63.6244 14.9849 64.5026 15.219C66.648 15.7604 67.3325 17.1166 67.5368 17.865H67.5573C67.4221 17.0689 67.0524 16.3313 66.4954 15.7466C65.9385 15.1619 65.2197 14.7567 64.4311 14.583V14.583Z" fill="#575767"/>
</g>
</g>
<defs>
<clipPath id="clip0">
<rect width="98" height="104" fill="white"/>
</clipPath>
</defs>
</svg>
