<?xml version="1.0" encoding="UTF-8"?>
<!DOCTYPE svg PUBLIC "-//W3C//DTD SVG 1.1//EN" "http://www.w3.org/Graphics/SVG/1.1/DTD/svg11.dtd">
<!-- Creator: CorelDRAW X8 -->
<svg xmlns="http://www.w3.org/2000/svg" xml:space="preserve" width="8.4666mm" height="8.4666mm" version="1.1" style="shape-rendering:geometricPrecision; text-rendering:geometricPrecision; image-rendering:optimizeQuality; fill-rule:evenodd; clip-rule:evenodd"
viewBox="0 0 847 847"
 xmlns:xlink="http://www.w3.org/1999/xlink">
 <defs>
  <style type="text/css">
   <![CDATA[
    .fil0 {fill:#FEFEFE}
   ]]>
  </style>
 </defs>
 <g id="Layer_x0020_1">
  <metadata id="CorelCorpID_0Corel-Layer"/>
  <g id="_1718172442608">
   <g>
    <g>
     <path class="fil0" d="M717 597c-19,-25 -44,-43 -74,-52l-73 -23c0,0 0,0 0,0l-53 -16c-5,-1 -10,-1 -14,0 -4,-3 -6,-8 -6,-13l0 -3 81 -21c28,-7 47,-32 47,-61l0 -40c12,-5 20,-16 20,-29l0 -52c0,-13 -8,-24 -20,-29l0 -10c0,-8 0,-17 -1,-24 -1,-6 -6,-11 -12,-10 -6,1 -10,6 -10,12 1,7 2,14 2,22l0 19 0 1c-6,-1 -13,-4 -21,-7 -1,0 -1,-1 -1,-1 -16,-7 -32,-19 -43,-40 -1,0 -1,0 -1,-1 0,0 -1,-1 -1,-2 0,-1 -1,-1 -1,-2 0,0 0,-1 -1,-2 0,-1 -1,-2 -1,-4 -2,-3 -4,-5 -8,-6 0,0 -1,-1 -2,-1 0,0 0,0 0,0 -1,0 -1,0 -1,0 -2,1 -4,1 -5,2 -1,0 -1,1 -1,1 0,0 0,0 0,0 -1,0 -1,0 -1,0 0,0 0,0 0,0 0,0 0,1 0,1 0,0 0,0 0,0 -1,0 -1,0 -1,0 0,0 0,0 0,0 0,1 -1,1 -1,1 0,0 0,0 0,0 -20,15 -130,93 -236,78 0,0 -1,0 -1,0 -1,0 -3,0 -5,-1 0,0 -1,0 -1,0 -2,0 -3,0 -5,-1 0,0 -1,0 -1,0 -2,0 -3,-1 -5,-1 -1,0 -2,-1 -2,-1 -1,0 -2,0 -3,-1 -1,0 -2,0 -3,0 -1,-1 -2,-1 -3,-1 -1,-1 -2,-1 -3,-1 -1,-1 -3,-1 -4,-2 0,0 -1,0 -2,0 -1,-1 -3,-1 -4,-2 0,0 -1,0 -1,0l0 -6 0 -20c0,-93 76,-169 169,-169l32 0c67,0 127,40 154,102 2,6 9,8 14,6 6,-3 8,-9 6,-14 -30,-70 -99,-115 -174,-115l-32 0c-105,0 -190,85 -190,190l0 15c-8,5 -12,14 -12,24l0 52c0,10 5,19 12,25l0 44c0,28 19,54 48,61l88 22 0 2c0,5 -3,10 -6,13 -5,-1 -10,-1 -14,0l-53 16c0,0 0,0 0,0l-73 23c-41,12 -74,42 -91,81 -1,3 -2,6 -3,9 -2,6 1,12 6,14 6,2 12,-1 14,-7 1,-3 2,-5 3,-8 14,-33 42,-58 77,-68 0,0 0,0 0,0l67 -21 56 64c8,9 19,14 31,14 5,0 9,-1 14,-2l45 -16 41 14c5,2 11,3 16,3 14,0 28,-6 37,-17l53 -60 67 21c0,0 0,0 0,0 25,7 47,22 63,43 15,21 24,46 24,73l0 84c0,1 -1,1 -2,1l-58 0 0 -98c0,-6 -4,-10 -10,-10 -6,0 -11,4 -11,10l0 98 -439 0 0 -98c0,-6 -5,-10 -11,-10 -6,0 -11,4 -11,10l0 98 -58 0c0,0 -1,0 -1,-1l0 -77c0,-6 -5,-11 -11,-11 -6,0 -10,5 -10,11l0 77c0,12 10,23 22,23l598 0c13,0 23,-11 23,-23l0 -84c0,-31 -10,-61 -28,-85zm-144 -149l-52 13c1,0 2,-1 2,-1 0,0 1,0 1,-1 2,-1 4,-2 5,-4 1,0 1,0 1,0 2,-2 4,-4 6,-5 0,0 0,0 0,0 3,-3 6,-6 8,-9 1,0 1,0 1,0 1,-2 3,-3 4,-5l12 -2c20,-3 36,-17 43,-35l0 9 0 0c0,19 -13,35 -31,40zm16 -100c1,-3 1,-7 1,-10 0,-1 0,-1 0,-2 1,-1 1,-2 1,-4 0,0 0,-1 0,-1 0,-2 0,-4 0,-5l0 -39c12,3 21,4 23,4 0,0 0,0 0,0 0,0 0,0 0,0 3,1 6,0 8,-2 0,-1 0,-1 1,-1 0,0 0,0 0,-1 0,0 0,0 0,0 0,0 0,0 0,0 0,0 0,0 0,0l0 52c0,5 -4,9 -9,10 0,0 0,0 0,0 0,0 0,0 0,0l-25 0c0,0 0,-1 0,-1zm-17 54c1,-1 2,-3 2,-4 1,-1 1,-2 2,-2 0,-2 1,-3 1,-5 1,-1 1,-1 1,-2 1,-1 1,-3 2,-4 0,-1 0,-1 1,-2 0,-2 1,-3 1,-5 1,-1 1,-1 1,-2 1,-2 1,-3 2,-5 0,0 0,-1 0,-1l1 0 0 9c0,13 -7,24 -18,30 1,0 1,-1 1,-1 1,-1 1,-2 2,-3 0,-1 1,-2 1,-3zm-343 -54c0,0 0,0 0,0 -3,-2 -6,-5 -6,-9l0 -47c1,0 1,0 1,0 1,1 1,1 2,1 1,0 2,1 3,1 0,0 1,1 1,1 2,0 3,1 5,2 0,0 0,0 0,0 7,2 14,4 21,6l0 23c0,1 0,3 0,5 0,0 0,1 0,1 0,2 0,3 0,4 0,1 0,1 0,2 1,3 1,7 1,10 0,0 0,1 0,1l-24 0c-1,0 -3,-1 -4,-1zm38 100c-19,-5 -32,-21 -32,-40l0 -38 27 0c0,0 0,1 0,1 1,2 1,3 2,5 0,1 0,1 0,2 1,2 1,4 2,5 0,1 1,2 1,2 0,2 1,3 2,4 0,1 0,2 1,3 0,1 1,3 1,4 1,1 1,1 1,2 1,2 2,3 3,5 0,0 0,1 1,2 1,1 1,3 2,4 1,1 1,2 2,3 0,1 1,2 1,3 1,1 2,2 3,3 0,1 1,2 1,2 1,2 2,3 3,4 1,1 1,2 2,2 1,2 2,3 3,5 0,0 1,1 1,1 1,1 2,2 3,3 0,0 0,1 0,1 2,2 3,3 5,5 0,0 0,0 1,1 1,1 3,3 4,4 1,1 1,1 1,1 2,2 4,3 5,5 1,0 1,0 1,0 3,3 6,5 9,8 0,0 0,0 0,0 2,1 3,2 4,3l-60 -15zm19 -72c0,0 0,0 0,0 0,-1 -1,-2 -1,-4 0,0 0,0 0,0 -1,-3 -2,-6 -3,-9 0,-1 0,-1 0,-1 0,-1 -1,-2 -1,-2 0,-1 0,-1 0,-2 0,-1 0,-1 -1,-2 0,-1 0,-1 0,-2 0,0 0,-1 0,-2 0,0 -1,-1 -1,-2 0,0 0,-1 0,-1 0,-1 0,-2 0,-3 0,0 0,-1 0,-1 -1,-1 -1,-2 -1,-3 0,0 0,0 0,-1 0,-1 0,-2 0,-3 0,0 0,0 0,-1 0,-1 0,-2 0,-3 0,0 -1,0 -1,-1 0,-1 0,-2 0,-3 0,0 0,0 0,0 0,-2 0,-3 0,-4l0 -19c16,2 33,2 50,1 1,0 1,0 2,-1 1,0 3,0 4,0 1,0 3,0 4,0 0,0 1,-1 1,-1 29,-3 60,-12 91,-25 42,-18 74,-40 90,-51 13,24 32,39 50,48 0,1 0,2 0,4l0 44c0,1 0,2 0,4 0,0 0,0 0,0 0,1 0,2 0,3 0,1 0,1 0,1 0,1 0,2 0,3 0,1 0,1 0,1 0,1 0,2 0,3 0,1 -1,1 -1,1 0,1 0,2 0,3 0,0 0,1 0,1 0,1 0,2 0,3 -1,0 -1,1 -1,1 0,1 0,2 0,2 0,1 0,2 0,2 -1,1 -1,1 -1,2 0,1 0,1 0,2 0,1 0,1 -1,2 0,0 0,1 0,2 0,0 0,0 0,1 -1,3 -2,6 -3,9 0,0 0,0 0,1 -1,1 -1,2 -1,3 0,0 -1,0 -1,0 -5,15 -13,28 -22,41l-24 4c-3,-4 -6,-8 -10,-10 -6,-5 -15,-7 -23,-6l-35 6c-17,3 -29,19 -26,37 2,10 9,19 19,23 -5,0 -11,1 -16,1 -21,0 -41,-5 -59,-13 -1,0 -1,0 -1,-1 -36,-16 -63,-45 -77,-82zm208 66c-1,2 -3,4 -6,4l-35 6c-1,0 -1,0 -2,0 -5,0 -9,-3 -10,-8 0,-6 3,-11 9,-12l35 -6c0,0 1,0 1,0 2,0 4,1 6,2 2,2 4,4 4,7 1,2 0,5 -2,7zm-123 159c-8,2 -17,0 -22,-6l-50 -57 37 -11c0,-1 0,0 1,0l66 63 -32 11zm-10 -81c6,-7 10,-17 10,-27l0 -8c1,0 2,0 2,0 1,1 1,1 1,1 2,0 5,1 7,2 0,0 0,0 1,0 1,0 2,1 3,1 1,0 1,0 1,0 2,0 5,1 7,1 0,0 1,1 2,1 1,0 2,0 3,0 1,0 3,1 4,1 1,0 2,0 3,0 1,0 2,0 4,0 0,1 1,1 1,1 2,0 4,0 6,0 0,0 1,0 1,0 2,0 4,0 6,0 2,0 4,0 6,0 1,0 1,0 2,0 2,0 3,0 5,0 1,0 1,0 2,-1 1,0 3,0 4,0 1,0 1,0 2,0 2,0 3,-1 5,-1 1,0 2,0 3,0 1,0 1,-1 2,-1 2,0 4,-1 6,-1 1,0 1,0 1,0 1,0 3,-1 4,-1 0,0 1,0 1,0 2,-1 4,-2 6,-2 1,0 1,0 1,-1 1,0 2,0 3,0l0 8c0,10 3,20 10,27l-63 59 -62 -59zm140 71c-7,9 -19,12 -30,8l-27 -9 66 -63c0,0 0,-1 1,0l37 11 -47 53z"/>
    </g>
   </g>
   <g>
    <g>
     <path class="fil0" d="M330 653l-81 0c-10,0 -19,8 -19,19l0 36c0,10 9,18 19,18l81 0c10,0 19,-8 19,-18l0 -36c0,-11 -9,-19 -19,-19zm-3 52l-75 0 0 -31 75 0 0 31z"/>
    </g>
   </g>
   <g>
   </g>
   <g>
   </g>
   <g>
   </g>
   <g>
   </g>
   <g>
   </g>
   <g>
   </g>
   <g>
   </g>
   <g>
   </g>
   <g>
   </g>
   <g>
   </g>
   <g>
   </g>
   <g>
   </g>
   <g>
   </g>
   <g>
   </g>
   <g>
   </g>
  </g>
 </g>
</svg>
